<?xml version="1.0" encoding="UTF-8" standalone="no"?>
<svg
   id="svg4622"
   sodipodi:version="0.32"
   inkscape:version="1.1.2 (0a00cf5339, 2022-02-04)"
   width="24"
   height="24"
   sodipodi:docname="monologo.svg"
   inkscape:output_extension="org.inkscape.output.svg.inkscape"
   version="1.1"
   xmlns:inkscape="http://www.inkscape.org/namespaces/inkscape"
   xmlns:sodipodi="http://sodipodi.sourceforge.net/DTD/sodipodi-0.dtd"
   xmlns="http://www.w3.org/2000/svg"
   xmlns:svg="http://www.w3.org/2000/svg"
   xmlns:rdf="http://www.w3.org/1999/02/22-rdf-syntax-ns#"
   xmlns:cc="http://creativecommons.org/ns#"
   xmlns:dc="http://purl.org/dc/elements/1.1/">
  <metadata
     id="metadata4635">
    <rdf:RDF>
      <cc:Work
         rdf:about="">
        <dc:format>image/svg+xml</dc:format>
        <dc:type
           rdf:resource="http://purl.org/dc/dcmitype/StillImage" />
      </cc:Work>
    </rdf:RDF>
  </metadata>
  <defs
     id="defs4633">
    <linearGradient
       id="linearGradient834"
       inkscape:swatch="solid">
      <stop
         style="stop-color:#ff9900;stop-opacity:1;"
         offset="0"
         id="stop832" />
    </linearGradient>
    <inkscape:perspective
       sodipodi:type="inkscape:persp3d"
       inkscape:vp_x="0 : 526.18109 : 1"
       inkscape:vp_y="0 : 1000 : 0"
       inkscape:vp_z="744.09448 : 526.18109 : 1"
       inkscape:persp3d-origin="372.04724 : 350.78739 : 1"
       id="perspective24" />
  </defs>
  <sodipodi:namedview
     inkscape:window-height="947"
     inkscape:window-width="1280"
     inkscape:pageshadow="2"
     inkscape:pageopacity="0.0"
     guidetolerance="10.0"
     gridtolerance="10.0"
     objecttolerance="10.0"
     borderopacity="1.0"
     bordercolor="#666666"
     pagecolor="#ffffff"
     id="base"
     inkscape:zoom="15.356764"
     inkscape:cx="18.721392"
     inkscape:cy="7.0327316"
     inkscape:window-x="26"
     inkscape:window-y="23"
     inkscape:current-layer="layer2"
     showgrid="false"
     fit-margin-top="0"
     fit-margin-left="0"
     fit-margin-right="0"
     fit-margin-bottom="0"
     inkscape:window-maximized="0"
     inkscape:pagecheckerboard="0" />
  <g
     inkscape:groupmode="layer"
     id="layer2"
     inkscape:label="ss"
     transform="translate(-265.0505,-507.29598)">
    <path
       inkscape:connector-curvature="0"
       d="m 284.73353,523.11799 2.25766,-8.5931 -8.20807,-2.25766 -2.32767,8.36559 c -5.51288,-1.4526 -8.26057,-2.15265 -8.26057,-2.11765 -0.80506,3.06271 -0.59505,5.7229 0.63004,7.96306 0.52504,0.99757 1.24259,1.83763 2.11765,2.53768 0.84006,0.63004 1.78512,1.10257 2.8352,1.38259 1.01507,0.29752 2.06514,0.35003 3.15022,0.21002 1.10258,-0.14001 2.15265,-0.49004 3.11522,-1.06758 2.22265,-1.29509 3.78026,-3.43024 4.69032,-6.42295 z"
       id="path4659"
       style="fill:#ff0e00;stroke-width:0.0874967;fill-opacity:0;stroke:#000000;stroke-opacity:1" />
    <path
       inkscape:connector-curvature="0"
       d="m 277.52303,510.06208 -8.15557,-2.15265 -2.25766,8.06806 8.17307,2.25766 z"
       id="path4663"
       style="fill:#040000;stroke-width:0.0874967;stroke:#000000;stroke-opacity:0.98884547;fill-opacity:0" />
    <path
       inkscape:connector-curvature="0"
       d="m 269.36746,507.90943 -2.25766,8.06806 8.17307,2.25766 2.24016,-8.17307 -8.15557,-2.15265"
       id="path4667"
       style="fill:none;stroke:#000000;stroke-width:0.726894;stroke-linecap:round;stroke-linejoin:round;stroke-miterlimit:4;stroke-dasharray:none;stroke-opacity:1" />
    <path
       inkscape:connector-curvature="0"
       d="m 286.99119,514.52489 -8.20807,-2.25766 -2.32767,8.36559 c -5.51288,-1.4526 -8.26057,-2.15265 -8.26057,-2.11765 -0.80506,3.06271 -0.59505,5.7229 0.63004,7.96306 0.52504,0.99757 1.24259,1.83763 2.11765,2.53768 0.84006,0.63004 1.78512,1.10257 2.8352,1.38259 1.01507,0.29752 2.06514,0.35003 3.15022,0.21002 1.10258,-0.14001 2.15265,-0.49004 3.11522,-1.06758 2.22265,-1.29509 3.78026,-3.43024 4.69032,-6.42295 l 2.25766,-8.5931"
       id="path4671"
       style="fill:none;stroke:#000002;stroke-width:0.726894;stroke-linejoin:round;stroke-miterlimit:4;stroke-dasharray:none;stroke-opacity:1" />
  </g>
</svg>
