<?xml version="1.0" encoding="UTF-8"?>
<svg id="Capa_1" xmlns="http://www.w3.org/2000/svg" version="1.1" viewBox="0 0 24.001 24.001">
  <!-- Generator: Adobe Illustrator 29.0.1, SVG Export Plug-In . SVG Version: 2.1.0 Build 192)  -->
  <path d="M11.087,23.934c-.445,0-.834-.038-1.172-.082-.422-.056-.855-.146-1.286-.271-2.341-.67-5.979-3.357-6.399-8.019-.037-.405-.048-.819-.036-1.267.01-.335.16-1.834.26-2.327l.021-.106c.062-.308.125-.627.248-.954.15-.399.488-.639.929-.657.211-.012.397.035.532.068.87.215,5.706,1.518,6.66,1.788l1.854-6.891c.102-.38.325-.574.494-.67.174-.097.461-.188.85-.081.118.034,1.782.478,3.536.946,1.967.525,4.044,1.08,4.201,1.124.623.176.927.713.754,1.337l-.312,1.147c-1.162,4.218-2.281,8.212-2.586,8.877-.697,1.516-1.566,2.727-2.657,3.702-.373.334-1.736,1.464-3.623,2.004-.874.25-1.627.329-2.268.329ZM3.885,11.607c-.044.163-.079.335-.115.515l-.022.11c-.083.409-.227,1.821-.234,2.102-.011.395,0,.758.031,1.11.404,4.472,4.069,6.474,5.448,6.868.369.105.737.183,1.094.229.697.093,1.657.15,2.905-.206,1.284-.368,2.446-1.129,3.105-1.719.954-.853,1.718-1.922,2.338-3.27.303-.659,1.966-6.694,2.513-8.677l.255-.921c-.615-.166-2.329-.624-3.965-1.06-1.427-.381-2.796-.747-3.328-.89l-1.84,6.837c-.04.148-.111.37-.268.583-.111.152-.275.242-.448.265-.312.064-.577-.018-.755-.071-.834-.241-5.883-1.601-6.712-1.806,0,0,0,0,0,0Z"/>
  <path d="M9.758,11.309c-.107,0-.227-.016-.357-.057-.101-.032-.205-.058-.308-.084l-.168-.044c-.628-.17-2.508-.668-4.121-1.097-1.297-.344-2.421-.642-2.587-.688-.382-.105-.575-.326-.67-.494-.094-.167-.185-.444-.081-.822.275-.985,1.555-5.749,1.92-7.146.108-.416.394-.705.783-.792.067-.015.135-.018.198-.018.124,0,.248.018.371.054.447.13,5.333,1.436,7.178,1.927.378.101.571.323.667.492.097.172.188.459.072.849-.099.336-.709,2.6-1.812,6.728l-.106.398c-.104.385-.33.578-.502.672-.112.062-.272.12-.475.12ZM2.807,8.13c.43.115,1.331.354,2.335.62,1.616.429,3.499.929,4.126,1.098l.152.04c.036.009.072.019.108.028l.037-.138c.375-1.402,1.446-5.409,1.753-6.521-1.122-.299-5.573-1.487-6.719-1.802-.404,1.535-1.439,5.387-1.793,6.675Z"/>
</svg>