<svg width="13" height="13" viewBox="0 0 13 13" fill="none" xmlns="http://www.w3.org/2000/svg">
<path d="M0.748901 1.4944C0.748901 1.21826 0.972759 0.9944 1.2489 0.9944C1.52504 0.9944 1.7489 1.21826 1.7489 1.4944V12.4944C1.7489 12.7705 1.52504 12.9944 1.2489 12.9944C0.972759 12.9944 0.748901 12.7705 0.748901 12.4944V1.4944Z" fill="white"/>
<path fill-rule="evenodd" clip-rule="evenodd" d="M3.90662 9.86215C3.71136 9.66689 3.71136 9.3503 3.90662 9.15504L6.05313 7.11951C6.24839 6.92424 6.56497 6.92424 6.76024 7.11951C6.9555 7.31477 6.9555 7.63135 6.76024 7.82661L5.46728 9.00859H8.6864C8.96254 9.00859 9.1864 9.23245 9.1864 9.50859C9.1864 9.78474 8.96254 10.0086 8.6864 10.0086H5.46728L6.76024 11.1195C6.9555 11.3148 6.9555 11.6314 6.76024 11.8266C6.56497 12.0219 6.24839 12.0219 6.05313 11.8266L3.90662 9.86215Z" fill="white"/>
<path fill-rule="evenodd" clip-rule="evenodd" d="M4.7489 3.49451V4.49451H10.7489V3.49451H4.7489ZM4.2489 2.49451C3.97276 2.49451 3.7489 2.71836 3.7489 2.99451V4.99451C3.7489 5.27065 3.97276 5.49451 4.2489 5.49451H11.2489C11.525 5.49451 11.7489 5.27065 11.7489 4.99451V2.99451C11.7489 2.71836 11.525 2.49451 11.2489 2.49451H4.2489Z" fill="white"/>
</svg>
