<svg width="12" height="12" viewBox="0 0 12 12" fill="none" xmlns="http://www.w3.org/2000/svg">
<path d="M0 0.499894C0 0.223751 0.223858 -0.000106812 0.5 -0.000106812C0.776142 -0.000106812 1 0.223751 1 0.499893V11.4999C1 11.776 0.776142 11.9999 0.5 11.9999C0.223858 11.9999 0 11.776 0 11.4999V0.499894Z" fill="#1679F9"/>
<path fill-rule="evenodd" clip-rule="evenodd" d="M3.15772 8.86764C2.96246 8.67238 2.96246 8.3558 3.15772 8.16053L5.30423 6.125C5.49949 5.92974 5.81607 5.92974 6.01133 6.125C6.2066 6.32026 6.2066 6.63685 6.01133 6.83211L4.71838 8.01409H7.9375C8.21364 8.01409 8.4375 8.23795 8.4375 8.51409C8.4375 8.79023 8.21364 9.01409 7.9375 9.01409H4.71838L6.01133 10.125C6.2066 10.3203 6.2066 10.6368 6.01133 10.8321C5.81607 11.0274 5.49949 11.0274 5.30423 10.8321L3.15772 8.86764Z" fill="#1679F9"/>
<path fill-rule="evenodd" clip-rule="evenodd" d="M4 2.5V3.5H10V2.5H4ZM3.5 1.5C3.22386 1.5 3 1.72386 3 2V4C3 4.27614 3.22386 4.5 3.5 4.5H10.5C10.7761 4.5 11 4.27614 11 4V2C11 1.72386 10.7761 1.5 10.5 1.5H3.5Z" fill="#1679F9"/>
</svg>
