<svg width="12" height="12" viewBox="0 0 12 12" fill="none" xmlns="http://www.w3.org/2000/svg">
<path d="M12.0004 0.499894C12.0004 0.223751 11.7765 -0.000106812 11.5004 -0.000106812C11.2242 -0.000106812 11.0004 0.223751 11.0004 0.499893V11.4999C11.0004 11.776 11.2242 11.9999 11.5004 11.9999C11.7765 11.9999 12.0004 11.776 12.0004 11.4999V0.499894Z" fill="white"/>
<path fill-rule="evenodd" clip-rule="evenodd" d="M8.84265 8.86764C9.03791 8.67238 9.03791 8.3558 8.84265 8.16053L6.69614 6.125C6.50088 5.92974 6.18429 5.92974 5.98903 6.125C5.79377 6.32026 5.79377 6.63685 5.98903 6.83211L7.28199 8.01409H4.06287C3.78672 8.01409 3.56287 8.23795 3.56287 8.51409C3.56287 8.79023 3.78672 9.01409 4.06287 9.01409H7.28199L5.98903 10.125C5.79377 10.3203 5.79377 10.6368 5.98903 10.8321C6.18429 11.0274 6.50088 11.0274 6.69614 10.8321L8.84265 8.86764Z" fill="white"/>
<path fill-rule="evenodd" clip-rule="evenodd" d="M8.00037 2.5V3.5H2.00037V2.5H8.00037ZM8.50037 1.5C8.77651 1.5 9.00037 1.72386 9.00037 2V4C9.00037 4.27614 8.77651 4.5 8.50037 4.5H1.50037C1.22422 4.5 1.00037 4.27614 1.00037 4V2C1.00037 1.72386 1.22422 1.5 1.50037 1.5H8.50037Z" fill="white"/>
</svg>
