<svg width="13" height="13" viewBox="0 0 13 13" fill="none" xmlns="http://www.w3.org/2000/svg">
<g id="align-center-variant-on">
<g id="align-center-variant-off">
<g id="Vector">
<path d="M12.7491 9.4126C12.7491 9.13646 12.5252 8.9126 12.2491 8.9126H1.24908C0.972942 8.9126 0.749084 9.13646 0.749084 9.4126C0.749084 9.68874 0.972942 9.9126 1.24908 9.9126H12.2491C12.5252 9.9126 12.7491 9.68874 12.7491 9.4126Z" fill="white"/>
<path d="M12.7491 6.8125C12.7491 6.53636 12.5252 6.3125 12.2491 6.3125H1.24908C0.972942 6.3125 0.749084 6.53636 0.749084 6.8125C0.749084 7.08864 0.972942 7.3125 1.24908 7.3125H12.2491C12.5252 7.3125 12.7491 7.08864 12.7491 6.8125Z" fill="white"/>
<path d="M10.3487 11.8127C10.3487 11.5366 10.1248 11.3127 9.84869 11.3127H3.64869C3.37255 11.3127 3.14869 11.5366 3.14869 11.8127C3.14869 12.0889 3.37255 12.3127 3.64869 12.3127H9.84869C10.1248 12.3127 10.3487 12.0889 10.3487 11.8127Z" fill="white"/>
</g>
</g>
</g>
</svg>
