<svg width="13" height="13" viewBox="0 0 13 13" fill="none" xmlns="http://www.w3.org/2000/svg">
<g id="align-center-variant-off">
<g id="align-center-variant-off_2">
<g id="Vector">
<path d="M12.2491 10.0541C12.2491 9.77794 12.0252 9.55408 11.7491 9.55408H0.749085C0.472942 9.55408 0.249084 9.77794 0.249084 10.0541C0.249084 10.3302 0.472942 10.5541 0.749084 10.5541H11.7491C12.0252 10.5541 12.2491 10.3302 12.2491 10.0541Z" fill="#1679F9"/>
<path d="M12.2491 7.45398C12.2491 7.17784 12.0252 6.95398 11.7491 6.95398H0.749085C0.472942 6.95398 0.249084 7.17784 0.249084 7.45398C0.249084 7.73012 0.472942 7.95398 0.749084 7.95398H11.7491C12.0252 7.95398 12.2491 7.73012 12.2491 7.45398Z" fill="#1679F9"/>
<path d="M9.84869 12.4542C9.84869 12.1781 9.62484 11.9542 9.34869 11.9542H3.14869C2.87255 11.9542 2.64869 12.1781 2.64869 12.4542C2.64869 12.7304 2.87255 12.9542 3.14869 12.9542H9.34869C9.62484 12.9542 9.84869 12.7304 9.84869 12.4542Z" fill="#1679F9"/>
</g>
</g>
</g>
</svg>
