<svg width="11" height="12" viewBox="0 0 11 12" fill="none" xmlns="http://www.w3.org/2000/svg">
<g id="caption-variant-on">
<g id="caption-variant-off">
<g id="Vector">
<path fill-rule="evenodd" clip-rule="evenodd" d="M1.74908 1.67651V6.67651H9.74908V1.67651H1.74908ZM1.24908 0.676514C0.972942 0.676514 0.749084 0.900371 0.749084 1.17651V7.17651C0.749084 7.45266 0.972942 7.67651 1.24908 7.67651H10.2491C10.5252 7.67651 10.7491 7.45266 10.7491 7.17651V1.17651C10.7491 0.900371 10.5252 0.676514 10.2491 0.676514H1.24908Z" fill="white"/>
<path d="M0.749084 9.17651C0.749084 8.90037 0.972942 8.67651 1.24908 8.67651H10.2491C10.5252 8.67651 10.7491 8.90037 10.7491 9.17651C10.7491 9.45266 10.5252 9.67651 10.2491 9.67651H1.24908C0.972942 9.67651 0.749084 9.45266 0.749084 9.17651Z" fill="white"/>
<path d="M0.749084 11.1765C0.749084 10.9004 0.972942 10.6765 1.24908 10.6765H7.24908C7.52523 10.6765 7.74908 10.9004 7.74908 11.1765C7.74908 11.4527 7.52523 11.6765 7.24908 11.6765H1.24908C0.972942 11.6765 0.749084 11.4527 0.749084 11.1765Z" fill="white"/>
</g>
</g>
</g>
</svg>
