<svg width="11" height="12" viewBox="0 0 11 12" fill="none" xmlns="http://www.w3.org/2000/svg">
<g id="caption-variant-off">
<g id="caption-variant-off_2">
<g id="Vector">
<path fill-rule="evenodd" clip-rule="evenodd" d="M1.24908 1.31799V6.31799H9.24908V1.31799H1.24908ZM0.749084 0.317993C0.472942 0.317993 0.249084 0.541851 0.249084 0.817993V6.81799C0.249084 7.09414 0.472942 7.31799 0.749085 7.31799H9.74908C10.0252 7.31799 10.2491 7.09414 10.2491 6.81799V0.817993C10.2491 0.541851 10.0252 0.317993 9.74908 0.317993H0.749084Z" fill="#1679F9"/>
<path d="M0.249084 8.81799C0.249084 8.54185 0.472942 8.31799 0.749084 8.31799H9.74908C10.0252 8.31799 10.2491 8.54185 10.2491 8.81799C10.2491 9.09414 10.0252 9.31799 9.74908 9.31799H0.749085C0.472942 9.31799 0.249084 9.09414 0.249084 8.81799Z" fill="#1679F9"/>
<path d="M0.249084 10.818C0.249084 10.5419 0.472942 10.318 0.749084 10.318H6.74908C7.02523 10.318 7.24908 10.5419 7.24908 10.818C7.24908 11.0941 7.02523 11.318 6.74908 11.318H0.749085C0.472942 11.318 0.249084 11.0941 0.249084 10.818Z" fill="#1679F9"/>
</g>
</g>
</g>
</svg>
