<svg width="10" height="11" viewBox="0 0 10 11" fill="none" xmlns="http://www.w3.org/2000/svg">
<path fill-rule="evenodd" clip-rule="evenodd" d="M0.917007 3.06799C0.910317 3.0818 0.902164 3.0946 0.892788 3.10624C0.855326 3.15276 0.798329 3.18079 0.737017 3.18079H0.298433C0.171355 3.18079 0.0765 3.06382 0.102744 2.93948L0.614018 0.517216C0.633542 0.424716 0.715168 0.358521 0.809707 0.358521H8.63179C8.72545 0.358521 8.80656 0.423519 8.82698 0.514928L9.39194 3.04462C9.41985 3.16957 9.32479 3.28821 9.19675 3.28821H8.72841C8.67228 3.28821 8.61993 3.26474 8.5828 3.22532C8.56708 3.20863 8.55409 3.18908 8.54469 3.16725L7.92612 1.72948C7.89454 1.65608 7.8223 1.60852 7.7424 1.60852H5.77915C5.6687 1.60852 5.57915 1.69806 5.57915 1.80852V8.95695C5.57915 9.04658 5.63879 9.12527 5.72508 9.1495L7.72815 9.71207C7.81445 9.7363 7.87408 9.81499 7.87408 9.90462V10.1585C7.87408 10.269 7.78453 10.3585 7.67408 10.3585H1.82408C1.71362 10.3585 1.62408 10.269 1.62408 10.1585V9.90479C1.62408 9.81508 1.68381 9.73635 1.77021 9.71218L3.78263 9.14939C3.86903 9.12523 3.92876 9.04649 3.92876 8.95678V1.80852C3.92876 1.69806 3.83922 1.60852 3.72876 1.60852H1.74942C1.67276 1.60852 1.60285 1.65233 1.56943 1.72132L0.917007 3.06799Z" fill="white"/>
</svg>
