<svg width="10" height="10" viewBox="0 0 10 10" fill="none" xmlns="http://www.w3.org/2000/svg">
<path fill-rule="evenodd" clip-rule="evenodd" d="M1.41704 2.70947C1.41035 2.72327 1.40219 2.73608 1.39282 2.74772C1.35536 2.79424 1.29836 2.82227 1.23705 2.82227H0.798463C0.671386 2.82227 0.57653 2.7053 0.602775 2.58096L1.11405 0.158696C1.13357 0.0661954 1.2152 0 1.30974 0H9.13182C9.22548 0 9.30659 0.0649987 9.32701 0.156407L9.89197 2.68609C9.91988 2.81105 9.82482 2.92969 9.69678 2.92969H9.22844C9.17231 2.92969 9.11996 2.90622 9.08283 2.8668C9.06711 2.85011 9.05412 2.83056 9.04472 2.80873L8.42615 1.37096C8.39457 1.29756 8.32233 1.25 8.24243 1.25H6.27919C6.16873 1.25 6.07919 1.33954 6.07919 1.45V8.59843C6.07919 8.68806 6.13882 8.76675 6.22511 8.79098L8.22819 9.35355C8.31448 9.37778 8.37411 9.45647 8.37411 9.5461V9.8C8.37411 9.91046 8.28456 10 8.17411 10H2.32411C2.21365 10 2.12411 9.91046 2.12411 9.8V9.54627C2.12411 9.45656 2.18385 9.37782 2.27024 9.35366L4.28266 8.79087C4.36906 8.76671 4.4288 8.68797 4.4288 8.59826V1.45C4.4288 1.33954 4.33925 1.25 4.2288 1.25H2.24945C2.17279 1.25 2.10288 1.29381 2.06946 1.3628L1.41704 2.70947Z" fill="#1679F9"/>
</svg>
