<svg width="11" height="12" viewBox="0 0 11 12" fill="none" xmlns="http://www.w3.org/2000/svg">
<g id="dont-card-only-variant-off">
<g id="dont-card-only-variant-off_2">
<g id="Vector">
<path d="M0.249084 7.18198C0.249084 6.90583 0.472942 6.68198 0.749084 6.68198H9.74908C10.0252 6.68198 10.2491 6.90583 10.2491 7.18198V11.182C10.2491 11.4581 10.0252 11.682 9.74908 11.682H0.749085C0.472942 11.682 0.249084 11.4581 0.249084 11.182V7.18198Z" fill="#B0D2FE"/>
<path fill-rule="evenodd" clip-rule="evenodd" d="M1.24908 7.68198V10.682H9.24908V7.68198H1.24908ZM0.749084 6.68198C0.472942 6.68198 0.249084 6.90583 0.249084 7.18198V11.182C0.249084 11.4581 0.472942 11.682 0.749085 11.682H9.74908C10.0252 11.682 10.2491 11.4581 10.2491 11.182V7.18198C10.2491 6.90583 10.0252 6.68198 9.74908 6.68198H0.749084Z" fill="#1679F9"/>
<path fill-rule="evenodd" clip-rule="evenodd" d="M1.24908 1.68198V4.68198H9.24908V1.68198H1.24908ZM0.749084 0.681976C0.472942 0.681976 0.249084 0.905834 0.249084 1.18198V5.18198C0.249084 5.45812 0.472942 5.68198 0.749085 5.68198H9.74908C10.0252 5.68198 10.2491 5.45812 10.2491 5.18198V1.18198C10.2491 0.905834 10.0252 0.681976 9.74908 0.681976H0.749084Z" fill="#1679F9"/>
</g>
</g>
</g>
</svg>
