<svg width="11" height="12" viewBox="0 0 11 12" fill="none" xmlns="http://www.w3.org/2000/svg">
<g id="dont-card-only-variant-on">
<g id="dont-card-only-variant-off">
<g id="Vector">
<path d="M0.749084 6.5405C0.749084 6.26435 0.972942 6.0405 1.24908 6.0405H10.2491C10.5252 6.0405 10.7491 6.26435 10.7491 6.5405V10.5405C10.7491 10.8166 10.5252 11.0405 10.2491 11.0405H1.24908C0.972942 11.0405 0.749084 10.8166 0.749084 10.5405V6.5405Z" fill="#4F9CFF"/>
<path fill-rule="evenodd" clip-rule="evenodd" d="M1.74908 7.0405V10.0405H9.74908V7.0405H1.74908ZM1.24908 6.0405C0.972942 6.0405 0.749084 6.26435 0.749084 6.5405V10.5405C0.749084 10.8166 0.972942 11.0405 1.24908 11.0405H10.2491C10.5252 11.0405 10.7491 10.8166 10.7491 10.5405V6.5405C10.7491 6.26435 10.5252 6.0405 10.2491 6.0405H1.24908Z" fill="white"/>
<path fill-rule="evenodd" clip-rule="evenodd" d="M1.74908 1.0405V4.0405H9.74908V1.0405H1.74908ZM1.24908 0.0404968C0.972942 0.0404968 0.749084 0.264355 0.749084 0.540497V4.5405C0.749084 4.81664 0.972942 5.0405 1.24908 5.0405H10.2491C10.5252 5.0405 10.7491 4.81664 10.7491 4.5405V0.540497C10.7491 0.264354 10.5252 0.0404968 10.2491 0.0404968H1.24908Z" fill="white"/>
</g>
</g>
</g>
</svg>
