<svg width="14" height="8" viewBox="0 0 14 8" fill="none" xmlns="http://www.w3.org/2000/svg">
<g id="full-width-variant-off">
<g id="full-width-variant-off_2">
<path id="Line 1" fill-rule="evenodd" clip-rule="evenodd" d="M0.828759 4.03553C0.633496 3.84027 0.633496 3.52369 0.828759 3.32843L4.01074 0.146447C4.206 -0.0488155 4.52258 -0.0488155 4.71785 0.146447C4.91311 0.341709 4.91311 0.658291 4.71785 0.853553L2.38942 3.18198H12.1085L9.78011 0.853553C9.58485 0.658291 9.58485 0.341709 9.78011 0.146447C9.97537 -0.0488155 10.292 -0.0488155 10.4872 0.146447L13.6692 3.32843C13.8645 3.52369 13.8645 3.84027 13.6692 4.03553L10.4872 7.21751C10.292 7.41278 9.97537 7.41278 9.78011 7.21751C9.58485 7.02225 9.58485 6.70567 9.78011 6.51041L12.1085 4.18198H2.38942L4.71785 6.51041C4.91311 6.70567 4.91311 7.02225 4.71785 7.21751C4.52258 7.41278 4.206 7.41278 4.01074 7.21751L0.828759 4.03553Z" fill="#1679F9"/>
</g>
</g>
</svg>
