<svg width="14" height="8" viewBox="0 0 14 8" fill="none" xmlns="http://www.w3.org/2000/svg">
<g id="full-width-variant-on">
<g id="full-width-variant-off">
<path id="Line 1" fill-rule="evenodd" clip-rule="evenodd" d="M0.32882 4.39405C0.133557 4.19879 0.133557 3.88221 0.32882 3.68695L3.5108 0.504967C3.70606 0.309705 4.02264 0.309705 4.21791 0.504967C4.41317 0.700229 4.41317 1.01681 4.21791 1.21207L1.88948 3.5405H11.6086L9.28017 1.21207C9.08491 1.01681 9.08491 0.700229 9.28017 0.504967C9.47543 0.309705 9.79202 0.309705 9.98728 0.504967L13.1693 3.68695C13.3645 3.88221 13.3645 4.19879 13.1693 4.39405L9.98728 7.57604C9.79202 7.7713 9.47543 7.7713 9.28017 7.57604C9.08491 7.38077 9.08491 7.06419 9.28017 6.86893L11.6086 4.5405H1.88948L4.21791 6.86893C4.41317 7.06419 4.41317 7.38077 4.21791 7.57604C4.02264 7.7713 3.70606 7.7713 3.5108 7.57604L0.32882 4.39405Z" fill="white"/>
</g>
</g>
</svg>
