<svg width="15" height="15" viewBox="0 0 15 15" fill="none" xmlns="http://www.w3.org/2000/svg">
<g id="ordered-list-variant-on">
<g id="ordered-list-variant-on_2">
<g id="Vector">
<path d="M2.63274 0.948853V4.68911H1.84195V1.69946H1.82004L0.963501 2.23639V1.53509L1.88943 0.948853H2.63274Z" fill="white"/>
<path d="M0.646651 9.94888V9.37907L1.97802 8.14632C2.09125 8.03674 2.18622 7.93812 2.26293 7.85046C2.34085 7.7628 2.3999 7.67696 2.44008 7.59295C2.48025 7.50773 2.50034 7.4158 2.50034 7.31718C2.50034 7.2076 2.47538 7.11325 2.42547 7.03411C2.37555 6.95375 2.30737 6.89226 2.22092 6.84965C2.13448 6.80582 2.03646 6.7839 1.92689 6.7839C1.81244 6.7839 1.7126 6.80704 1.62737 6.8533C1.54215 6.89957 1.4764 6.96592 1.43013 7.05237C1.38387 7.13881 1.36073 7.24169 1.36073 7.36101H0.610125C0.610125 7.11629 0.665523 6.90383 0.776318 6.72363C0.887113 6.54344 1.04235 6.40403 1.24202 6.30541C1.4417 6.20679 1.67181 6.15748 1.93237 6.15748C2.20022 6.15748 2.43338 6.20497 2.63184 6.29993C2.83151 6.39368 2.98675 6.52396 3.09754 6.69076C3.20834 6.85756 3.26374 7.04872 3.26374 7.26422C3.26374 7.40545 3.23573 7.54486 3.17973 7.68244C3.12494 7.82002 3.02693 7.97282 2.88569 8.14084C2.74446 8.30764 2.54539 8.50793 2.28849 8.74169L1.74243 9.2768V9.30237H3.31305V9.94888H0.646651Z" fill="white"/>
<path d="M1.95382 15C1.6811 15 1.4382 14.9531 1.22513 14.8594C1.01328 14.7644 0.84587 14.6341 0.722899 14.4686C0.601146 14.3018 0.538443 14.1094 0.53479 13.8915H1.33106C1.33593 13.9828 1.36576 14.0631 1.42054 14.1325C1.47655 14.2007 1.55082 14.2537 1.64335 14.2914C1.73589 14.3292 1.83998 14.348 1.95565 14.348C2.07619 14.348 2.18272 14.3267 2.27525 14.2841C2.36779 14.2415 2.44023 14.1824 2.49258 14.107C2.54494 14.0315 2.57111 13.9444 2.57111 13.8458C2.57111 13.746 2.54311 13.6577 2.4871 13.581C2.43231 13.5031 2.35317 13.4422 2.24968 13.3984C2.14741 13.3545 2.02566 13.3326 1.88442 13.3326H1.5356V12.7518H1.88442C2.00374 12.7518 2.10906 12.7311 2.20037 12.6897C2.29291 12.6484 2.36474 12.5911 2.41588 12.5181C2.46701 12.4438 2.49258 12.3574 2.49258 12.2587C2.49258 12.165 2.47006 12.0828 2.42501 12.0122C2.38118 11.9404 2.31908 11.8843 2.23873 11.8442C2.15959 11.804 2.06705 11.7839 1.96113 11.7839C1.85399 11.7839 1.75598 11.8034 1.6671 11.8423C1.57822 11.8801 1.50699 11.9343 1.45342 12.0049C1.39985 12.0755 1.37123 12.1583 1.36758 12.2533H0.609668C0.613321 12.0378 0.674806 11.8478 0.794124 11.6835C0.913443 11.5191 1.07416 11.3906 1.27627 11.2981C1.4796 11.2044 1.7091 11.1575 1.96478 11.1575C2.2229 11.1575 2.44875 11.2044 2.64234 11.2981C2.83593 11.3919 2.98629 11.5185 3.09343 11.678C3.2018 11.8363 3.25537 12.014 3.25415 12.2113C3.25537 12.4207 3.19023 12.5954 3.05873 12.7354C2.92846 12.8754 2.75861 12.9643 2.5492 13.002V13.0313C2.82436 13.0666 3.03378 13.1621 3.17744 13.318C3.32233 13.4726 3.39417 13.6662 3.39295 13.8988C3.39417 14.1118 3.33268 14.3012 3.20849 14.4667C3.08552 14.6323 2.91567 14.7626 2.69895 14.8576C2.48223 14.9525 2.23386 15 1.95382 15Z" fill="white"/>
<path d="M5.9635 3.44885C5.9635 3.17271 6.18736 2.94885 6.4635 2.94885H14.4635C14.7396 2.94885 14.9635 3.17271 14.9635 3.44885C14.9635 3.72499 14.7396 3.94885 14.4635 3.94885H6.4635C6.18736 3.94885 5.9635 3.72499 5.9635 3.44885Z" fill="white"/>
<path d="M5.9635 8.44885C5.9635 8.17271 6.18736 7.94885 6.4635 7.94885H14.4635C14.7396 7.94885 14.9635 8.17271 14.9635 8.44885C14.9635 8.72499 14.7396 8.94885 14.4635 8.94885H6.4635C6.18736 8.94885 5.9635 8.72499 5.9635 8.44885Z" fill="white"/>
<path d="M5.9635 13.4489C5.9635 13.1727 6.18736 12.9489 6.4635 12.9489H14.4635C14.7396 12.9489 14.9635 13.1727 14.9635 13.4489C14.9635 13.725 14.7396 13.9489 14.4635 13.9489H6.4635C6.18736 13.9489 5.9635 13.725 5.9635 13.4489Z" fill="white"/>
</g>
</g>
</g>
</svg>
