<svg width="15" height="15" viewBox="0 0 15 15" fill="none" xmlns="http://www.w3.org/2000/svg">
<g id="ordered-list-variant-on">
<g id="ordered-list-variant-on_2">
<g id="Vector">
<path d="M2.13274 0.590332V4.33059H1.34195V1.34094H1.32004L0.463501 1.87787V1.17657L1.38943 0.590332H2.13274Z" fill="#1679F9"/>
<path d="M0.146651 9.59036V9.02055L1.47802 7.7878C1.59125 7.67822 1.68622 7.5796 1.76293 7.49194C1.84085 7.40428 1.8999 7.31844 1.94008 7.23443C1.98025 7.1492 2.00034 7.05728 2.00034 6.95866C2.00034 6.84908 1.97538 6.75472 1.92547 6.67558C1.87555 6.59523 1.80737 6.53374 1.72092 6.49113C1.63448 6.4473 1.53646 6.42538 1.42689 6.42538C1.31244 6.42538 1.2126 6.44851 1.12737 6.49478C1.04215 6.54105 0.976399 6.6074 0.930133 6.69385C0.883867 6.78029 0.860734 6.88317 0.860734 7.00249H0.110125C0.110125 6.75777 0.165523 6.54531 0.276318 6.36511C0.387113 6.18492 0.542349 6.04551 0.742024 5.94689C0.9417 5.84827 1.17181 5.79896 1.43237 5.79896C1.70022 5.79896 1.93338 5.84645 2.13184 5.94141C2.33151 6.03516 2.48675 6.16544 2.59754 6.33224C2.70834 6.49904 2.76374 6.69019 2.76374 6.9057C2.76374 7.04693 2.73573 7.18634 2.67973 7.32392C2.62494 7.4615 2.52693 7.6143 2.38569 7.78232C2.24446 7.94912 2.04539 8.14941 1.78849 8.38317L1.24243 8.91828V8.94385H2.81305V9.59036H0.146651Z" fill="#1679F9"/>
<path d="M1.45382 14.6415C1.1811 14.6415 0.938199 14.5946 0.725131 14.5009C0.51328 14.4059 0.34587 14.2756 0.222899 14.11C0.101146 13.9432 0.0384426 13.7509 0.03479 13.5329H0.831056C0.835926 13.6242 0.865756 13.7046 0.920545 13.774C0.976551 13.8422 1.05082 13.8951 1.14335 13.9329C1.23589 13.9706 1.33998 13.9895 1.45565 13.9895C1.57619 13.9895 1.68272 13.9682 1.77525 13.9256C1.86779 13.883 1.94023 13.8239 1.99258 13.7484C2.04494 13.6729 2.07111 13.5859 2.07111 13.4873C2.07111 13.3874 2.04311 13.2992 1.9871 13.2225C1.93231 13.1445 1.85317 13.0837 1.74968 13.0398C1.64741 12.996 1.52566 12.9741 1.38442 12.9741H1.0356V12.3933H1.38442C1.50374 12.3933 1.60906 12.3726 1.70037 12.3312C1.79291 12.2898 1.86474 12.2326 1.91588 12.1596C1.96701 12.0853 1.99258 11.9988 1.99258 11.9002C1.99258 11.8065 1.97006 11.7243 1.92501 11.6537C1.88118 11.5818 1.81908 11.5258 1.73873 11.4857C1.65959 11.4455 1.56705 11.4254 1.46113 11.4254C1.35399 11.4254 1.25598 11.4449 1.1671 11.4838C1.07822 11.5216 1.00699 11.5757 0.953418 11.6464C0.899847 11.717 0.871235 11.7998 0.867582 11.8947H0.109668C0.113321 11.6792 0.174806 11.4893 0.294124 11.3249C0.413443 11.1606 0.574157 11.0321 0.776267 10.9396C0.979595 10.8458 1.2091 10.799 1.46478 10.799C1.7229 10.799 1.94875 10.8458 2.14234 10.9396C2.33593 11.0333 2.48629 11.16 2.59343 11.3195C2.7018 11.4777 2.75537 11.6555 2.75415 11.8527C2.75537 12.0622 2.69023 12.2369 2.55873 12.3769C2.42846 12.5169 2.25861 12.6058 2.0492 12.6435V12.6727C2.32436 12.7081 2.53378 12.8036 2.67744 12.9595C2.82233 13.1141 2.89417 13.3077 2.89295 13.5402C2.89417 13.7533 2.83268 13.9426 2.70849 14.1082C2.58552 14.2738 2.41567 14.4041 2.19895 14.499C1.98223 14.594 1.73386 14.6415 1.45382 14.6415Z" fill="#1679F9"/>
<path d="M5.4635 3.09033C5.4635 2.81419 5.68736 2.59033 5.9635 2.59033H13.9635C14.2396 2.59033 14.4635 2.81419 14.4635 3.09033C14.4635 3.36647 14.2396 3.59033 13.9635 3.59033H5.9635C5.68736 3.59033 5.4635 3.36647 5.4635 3.09033Z" fill="#1679F9"/>
<path d="M5.4635 8.09033C5.4635 7.81419 5.68736 7.59033 5.9635 7.59033H13.9635C14.2396 7.59033 14.4635 7.81419 14.4635 8.09033C14.4635 8.36647 14.2396 8.59033 13.9635 8.59033H5.9635C5.68736 8.59033 5.4635 8.36647 5.4635 8.09033Z" fill="#1679F9"/>
<path d="M5.4635 13.0903C5.4635 12.8142 5.68736 12.5903 5.9635 12.5903H13.9635C14.2396 12.5903 14.4635 12.8142 14.4635 13.0903C14.4635 13.3665 14.2396 13.5903 13.9635 13.5903H5.9635C5.68736 13.5903 5.4635 13.3665 5.4635 13.0903Z" fill="#1679F9"/>
</g>
</g>
</g>
</svg>
