<svg width="8" height="13" viewBox="0 0 8 13" fill="none" xmlns="http://www.w3.org/2000/svg">
<g id="quote-variant-on">
<g id="quote-variant-off">
<path id="Vector" d="M5.7491 2.85852C5.7491 3.96309 4.85367 4.85852 3.7491 4.85852C2.64453 4.85852 1.7491 3.96309 1.7491 2.85852C1.7491 1.75395 2.64453 0.858521 3.7491 0.858521C4.85367 0.858521 5.7491 1.75395 5.7491 2.85852ZM0.696891 8.98112C0.290118 7.39923 1.48477 5.85852 3.11812 5.85852H3.7491H4.38007C6.01343 5.85852 7.20808 7.39923 6.80131 8.98112L6.15796 11.483C6.10113 11.704 5.90189 11.8585 5.67371 11.8585H1.82449C1.5963 11.8585 1.39707 11.704 1.34024 11.483L0.696891 8.98112Z" stroke="white"/>
</g>
</g>
</svg>
