<svg width="8" height="12" viewBox="0 0 8 12" fill="none" xmlns="http://www.w3.org/2000/svg">
<g id="quote-variant-off">
<g id="quote-variant-off_2">
<path id="Vector" d="M6.2491 2.5C6.2491 3.60457 5.35367 4.5 4.2491 4.5C3.14453 4.5 2.2491 3.60457 2.2491 2.5C2.2491 1.39543 3.14453 0.5 4.2491 0.5C5.35367 0.5 6.2491 1.39543 6.2491 2.5ZM1.19689 8.6226C0.790118 7.04071 1.98477 5.5 3.61812 5.5H4.2491H4.88007C6.51343 5.5 7.70808 7.04071 7.30131 8.6226L6.65796 11.1245C6.60113 11.3455 6.40189 11.5 6.17371 11.5H2.32449C2.0963 11.5 1.89707 11.3455 1.84024 11.1245L1.19689 8.6226Z" stroke="#1679F9"/>
</g>
</g>
</svg>
