<?xml version="1.0" encoding="utf-8"?>
<!-- Generator: Adobe Illustrator 19.1.0, SVG Export Plug-In . SVG Version: 6.00 Build 0)  -->
<svg version="1.1" id="Capa_1" xmlns="http://www.w3.org/2000/svg" xmlns:xlink="http://www.w3.org/1999/xlink" x="0px" y="0px"
	 viewBox="0 0 95.6 95.6" style="enable-background:new 0 0 95.6 95.6;" xml:space="preserve">
<style type="text/css">
	.st0{fill:#E20613;}
	.st1{fill:#FFFFFF;}
</style>
<g>
	<polygon class="st0" points="0,0 95.6,0 95.6,95.6 0,95.6 0,0 	"/>
	<path class="st1" d="M38.9,37.1c0-5,4-9,9-9c5,0,9,4,9,9c0,5-4,9-9,9C42.9,46.1,38.9,42.1,38.9,37.1z M72.4,56.3c0-0.1,0-0.2,0-0.4
		c0-0.3-0.1-0.7-0.1-1c0-0.1,0-0.2,0-0.3c-0.6-4.8-2.5-9.1-5.4-12.6l0,0c-0.8-1-1.7-1.9-2.6-2.7l-4.1,5.1c-0.9,1.4-2,2.7-3.2,3.9
		c1.4,1.3,2.5,3,3.1,4.8c0,0,0,0.1,0,0.1c0.1,0.3,0.2,0.6,0.3,0.9c0,0.1,0.1,0.3,0.1,0.4c0,0.1,0.1,0.2,0.1,0.4
		c0.1,0.2,0.1,0.5,0.1,0.7c0,0.1,0,0.1,0,0.2c0,0.3,0.1,0.5,0.1,0.8c0,0.1,0,0.2,0,0.2c0,0.3,0,0.6,0,0.9c0,7.2-5.8,13-12.9,13.1
		c-7.1,0-12.9-5.8-12.9-12.9V13.3H23.1v68.1h11.9V79v-0.2c0,0,0.1,0.1,0.1,0.1c0.4,0.2,0.8,0.4,1.1,0.6c0.1,0,0.1,0.1,0.2,0.1
		c0.4,0.2,0.9,0.4,1.3,0.6c0.1,0,0.1,0.1,0.2,0.1c0.4,0.2,0.8,0.3,1.2,0.5c0.1,0,0.2,0.1,0.3,0.1c0.5,0.2,0.9,0.3,1.4,0.5
		c0.1,0,0.1,0,0.2,0.1c0.4,0.1,0.8,0.2,1.3,0.3c0.1,0,0.2,0.1,0.3,0.1c0.5,0.1,1,0.2,1.5,0.3c0.1,0,0.1,0,0.2,0
		c0.5,0.1,0.9,0.1,1.4,0.1c0.1,0,0.3,0,0.4,0c0.5,0,1,0.1,1.5,0.1l0,0c4.3,0,8.3-1.1,11.8-3c0.3-0.2,0.7-0.4,1-0.6
		c0.7-0.4,1.3-0.9,2-1.3c1.6-1.2,3-2.6,4.3-4.1c0.5-0.6,1-1.2,1.4-1.9c2.7-3.9,4.2-8.7,4.2-13.8C72.4,57.2,72.4,56.7,72.4,56.3z"/>
</g>
</svg>
