<svg width="20" height="18" viewBox="0 0 20 18" fill="none" xmlns="http://www.w3.org/2000/svg">
<path d="M7.5 6.5L9.5 1L12.5 6.5L18 7L14 11L15 17L10 14L4.5 16.5L5.5 11L1.5 7L7.5 6.5Z" fill="#FFE6C9"/>
<path d="M15.4405 17.9999C15.6711 18.0037 15.8899 17.9068 16.0367 17.7367C16.1835 17.5676 16.2427 17.3433 16.1964 17.1267L14.9833 11.4758L19.4325 7.58664C19.6533 7.3947 19.736 7.09633 19.6444 6.82552C19.5527 6.55375 19.3044 6.358 19.0078 6.3257L13.0195 5.68431L10.5324 0.429492H10.5333C10.4111 0.168187 10.1402 0 9.84059 0C9.54103 0 9.27004 0.168189 9.14785 0.429492L6.66066 5.68431L0.672385 6.3257H0.67337C0.376756 6.35801 0.128426 6.55375 0.0368035 6.82552C-0.0548395 7.09633 0.0279348 7.39469 0.248666 7.58664L4.69787 11.4758L3.48483 17.1267C3.4257 17.406 3.54198 17.692 3.78243 17.8593C4.02287 18.0265 4.34314 18.0446 4.60229 17.9049L9.84083 15.0542L15.0794 17.9049C15.1897 17.9647 15.3139 17.998 15.441 17.9999L15.4405 17.9999ZM14.3733 15.8476L10.216 13.5871H10.215C9.98246 13.4607 9.69865 13.4607 9.46609 13.5871L5.30876 15.8476L6.27052 11.3644H6.26953C6.32274 11.1136 6.23504 10.8542 6.03796 10.6812L2.50725 7.59479L7.25892 7.08356L7.25794 7.08451C7.52499 7.05696 7.75657 6.89637 7.86792 6.66166L9.84071 2.4959L11.8135 6.66166C11.9249 6.89637 12.1564 7.05695 12.4235 7.08451L17.1751 7.59574L13.6444 10.6822L13.6435 10.6812C13.4464 10.8542 13.3587 11.1136 13.4119 11.3644L14.3733 15.8476Z" fill="#F5982B"/>
</svg>
