<svg width="18" height="18" viewBox="0 0 18 18" fill="none" xmlns="http://www.w3.org/2000/svg">
<path d="M2 8.5V4.5L3 3.5H15L16 4.5V8.5H2Z" fill="#FFF1F5"/>
<path d="M3.18182 17.6364H14.8182C16.0234 17.6364 17 16.6598 17 15.4545V4.90909C17 3.70384 16.0234 2.72727 14.8182 2.72727H13.3636V1.72727C13.3636 1.32529 13.0383 1 12.6364 1C12.2344 1 11.9091 1.32529 11.9091 1.72727V2.72727H6.09091V1.72727C6.09091 1.32529 5.76562 1 5.36364 1C4.96165 1 4.63636 1.32529 4.63636 1.72727V2.72727H3.18182C1.97656 2.72727 1 3.70384 1 4.90909V15.4545C1 16.6598 1.97656 17.6364 3.18182 17.6364ZM14.8182 16.1818H3.18182C2.77984 16.1818 2.45455 15.8565 2.45455 15.4545V9.45454H15.5455V15.4545C15.5455 15.6477 15.4687 15.8324 15.3324 15.9687C15.196 16.1051 15.0114 16.1818 14.8182 16.1818ZM3.18182 4.18182H4.63636V5C4.63636 5.40198 4.96165 5.72727 5.36364 5.72727C5.76562 5.72727 6.09091 5.40198 6.09091 5V4.18182H11.9091V5C11.9091 5.40198 12.2344 5.72727 12.6364 5.72727C13.0383 5.72727 13.3636 5.40198 13.3636 5V4.18182H14.8182C15.0114 4.18182 15.196 4.25852 15.3324 4.39489C15.4687 4.53126 15.5455 4.71591 15.5455 4.90909V8H2.45455V4.90909C2.45455 4.50711 2.77984 4.18182 3.18182 4.18182Z" fill="#D93562"/>
</svg>
