<svg width="19" height="19" viewBox="0 0 19 19" fill="none" xmlns="http://www.w3.org/2000/svg">
<path d="M9.18014 9.81272C8.36992 9.0025 7.74565 7.93072 7.26866 6.8852C6.79178 7.93038 6.16929 9.00197 5.35939 9.81198C4.54875 10.6226 3.47571 11.2457 2.42968 11.7227C3.47571 12.1998 4.54875 12.8228 5.35939 13.6335C6.16929 14.4435 6.79178 15.5151 7.26866 16.5602C7.74565 15.5147 8.36992 14.443 9.18014 13.6327C9.99004 12.8229 11.0611 12.1996 12.1062 11.7227C11.0611 11.2459 9.99004 10.6225 9.18014 9.81272ZM10.482 8.86027C11.4094 9.70055 12.7716 10.3394 14.041 10.7981C14.7049 11.0379 14.7049 12.4076 14.041 12.6474C12.7716 13.106 11.4094 13.7449 10.482 14.5852L10.3029 14.7555C9.37789 15.6805 8.68323 17.1404 8.19406 18.4944C7.95421 19.1582 6.58454 19.1582 6.34473 18.4944C5.88611 17.2249 5.24723 15.8628 4.40694 14.9353L4.23663 14.7562C3.31162 13.8312 1.85174 13.1366 0.497744 12.6474C-0.165914 12.4075 -0.165915 11.038 0.497744 10.7981C1.76711 10.3395 3.12931 9.7005 4.05681 8.86027L4.23663 8.68922C5.16147 7.76422 5.85561 6.30492 6.34473 4.95107C6.58454 4.28726 7.95421 4.28729 8.19406 4.95107C8.68323 6.30507 9.37789 7.76495 10.3029 8.68995L10.482 8.86027Z" fill="#B45400"/>
<path d="M14.7486 3.30894C14.6091 3.16944 14.4829 3.01669 14.3634 2.8594C14.2441 3.01641 14.1189 3.16967 13.9797 3.30894C13.8401 3.44847 13.6867 3.5739 13.5294 3.69343C13.6867 3.81296 13.8401 3.93838 13.9797 4.07791C14.1189 4.21718 14.2441 4.37045 14.3634 4.52746C14.4829 4.37016 14.6091 4.21741 14.7486 4.07791C14.8879 3.93869 15.0405 3.81274 15.1974 3.69343C15.0405 3.57412 14.8879 3.44816 14.7486 3.30894ZM17.4795 3.13936C17.5952 3.18493 17.7105 3.2276 17.8238 3.26728C18.1164 3.36982 18.1343 3.93365 17.8779 4.09326L17.8238 4.11958C17.7105 4.15925 17.5952 4.20192 17.4795 4.2475L17.6739 3.69343L17.4795 3.13936ZM15.8714 2.18618C16.2745 2.5893 16.8823 2.904 17.4795 3.13936L17.6739 3.69343L17.4795 4.2475C16.8823 4.48286 16.2745 4.79756 15.8714 5.20068C15.3903 5.68187 15.0348 6.45463 14.7903 7.15308L14.764 7.20717C14.6042 7.46337 14.0406 7.44553 13.938 7.15308C13.724 6.54196 13.4253 5.87409 13.0316 5.39438L12.8569 5.20068C12.3757 4.71954 11.6029 4.3641 10.9045 4.11958C10.593 4.00999 10.593 3.37687 10.9045 3.26728C11.5155 3.05336 12.1835 2.75449 12.6632 2.36088L12.8569 2.18618C13.3381 1.70499 13.6935 0.932271 13.938 0.233774C14.0474 -0.0779632 14.6808 -0.0778862 14.7903 0.233774L14.8875 0.499114C15.1259 1.12129 15.4505 1.76523 15.8714 2.18618Z" fill="#B45400"/>
</svg>
