<svg width="18" height="18" viewBox="0 0 18 18" fill="none" xmlns="http://www.w3.org/2000/svg">
<path fill-rule="evenodd" clip-rule="evenodd" d="M12.2533 7.37152L13.0202 6.60245L13.0814 6.6907C13.9012 7.87327 14.3781 9.28412 14.3781 10.8098C14.3781 14.7765 11.1558 17.9989 7.18906 17.9989C3.22234 17.9989 0 14.7765 0 10.8098C0 6.8431 3.22234 3.62076 7.18906 3.62076C8.71439 3.62076 10.1448 4.09745 11.3088 4.91785L11.3957 4.97914L10.6288 5.74602L10.5678 5.70576C9.58351 5.05585 8.43318 4.68481 7.18992 4.68481C3.81213 4.68481 1.06488 7.43206 1.06488 10.8099C1.06488 14.1877 3.81213 16.9349 7.18992 16.9349C10.5677 16.9349 13.315 14.1877 13.315 10.8099C13.315 9.56621 12.9437 8.39704 12.2945 7.43261L12.2533 7.37152Z" fill="#1679F9"/>
<path d="M9.5997 6.62927C8.90307 6.21511 8.074 5.98928 7.18901 5.98928C4.53331 5.98928 2.38682 8.13576 2.38682 10.7915C2.38682 13.4472 4.53331 15.5936 7.18901 15.5936C9.84471 15.5936 11.9912 13.4472 11.9912 10.7915C11.9912 9.90651 11.7654 9.09657 11.3512 8.38077L10.6921 9.03989C10.9554 9.56734 11.1062 10.1698 11.1062 10.7914C11.1062 12.9571 9.3547 14.7087 7.18897 14.7087C5.02324 14.7087 3.27171 12.9572 3.27171 10.7914C3.27171 8.6257 5.02324 6.87416 7.18897 6.87416C7.81058 6.87416 8.41306 7.02497 8.94051 7.28832L9.5997 6.62927Z" fill="#1679F9"/>
<path d="M7.07705 9.17138L7.88698 8.36145C7.67953 8.3048 7.45369 8.26729 7.20873 8.26729C5.81545 8.26729 4.6856 9.39721 4.6856 10.7904C4.6856 12.1836 5.81553 13.3135 7.20873 13.3135C8.602 13.3135 9.73185 12.1836 9.73185 10.7904C9.73185 10.5646 9.69433 10.3387 9.63769 10.1122L8.82776 10.903C8.77112 11.7504 8.05534 12.4095 7.2079 12.4095C6.30381 12.4095 5.56966 11.6754 5.56966 10.7713C5.57039 9.9437 6.22961 9.22803 7.07705 9.17138Z" fill="#1679F9"/>
<path d="M17.9618 2.75046C17.8867 2.58127 17.7359 2.46798 17.5476 2.46798H15.5136V0.452383C15.5136 0.264062 15.4003 0.113255 15.2311 0.0382279C15.0803 -0.0368067 14.8919 0.000710604 14.7603 0.132388L12.4812 2.41145C12.4062 2.48648 12.3495 2.59977 12.3495 2.73144V5.02877L6.88823 10.4901C6.71903 10.6593 6.71903 10.9417 6.88823 11.1117C6.98239 11.2058 7.09568 11.2434 7.20822 11.2434C7.32151 11.2434 7.43406 11.2058 7.52822 11.1117L12.9895 5.65038H15.2686C15.3819 5.65038 15.4944 5.61286 15.5886 5.5187L17.8676 3.23964C17.9993 3.10796 18.0368 2.91967 17.9618 2.75046ZM13.2345 2.91966L14.6278 1.52639L14.6285 2.73134L13.2353 4.12461L13.2345 2.91966ZM15.0802 4.76535H13.8561L15.2494 3.37208H16.4735L15.0802 4.76535Z" fill="#1679F9"/>
</svg>
