<svg width="12" height="18" viewBox="0 0 12 18" fill="none" xmlns="http://www.w3.org/2000/svg">
<path d="M1.29187 5.5C0.891871 2.7 3.7919 1 6.2919 1H7.7919L10.7919 3.5V7L8.7919 11.5H3.7919L2.7919 9.5C2.2919 9.33333 1.69187 8.3 1.29187 5.5Z" fill="#ECF3FF"/>
<path fill-rule="evenodd" clip-rule="evenodd" d="M1.46631 9.4937C1.37601 9.33151 1.28553 9.18653 1.19253 9.03759L1.19008 9.03366C1.16975 8.99911 1.1497 8.96501 1.12983 8.93134C0.789274 8.35421 0.518366 7.89511 0.371195 7.18154C0.257408 6.72373 0.199951 6.26433 0.199951 5.80511C0.199951 2.60568 2.80564 0 6.00507 0C9.20489 0 11.8089 2.60563 11.8463 5.80231L11.8463 5.80437C11.8463 6.26367 11.7897 6.74133 11.6749 7.20024C11.528 7.89508 11.2579 8.35275 10.9186 8.92771C10.898 8.96256 10.8772 8.99784 10.8561 9.03363L10.8522 9.04039L10.8476 9.04677C10.7623 9.16599 10.6753 9.32244 10.5815 9.49099L10.5747 9.50324C10.4574 9.68794 10.3555 9.85691 10.2535 10.0266C10.2436 10.043 10.2338 10.0593 10.224 10.0756L10.2232 10.077C9.72306 10.8919 9.45033 11.3383 9.45033 12.2507V14.5727C9.45033 15.2081 9.02258 15.7543 8.43895 15.9093C8.30594 16.5153 8.05377 17.0269 7.66768 17.394C7.25465 17.7868 6.70313 18 6.02314 18C5.34316 18 4.79163 17.7868 4.37859 17.394C3.99181 17.0262 3.73943 16.5135 3.60662 15.9061C3.0283 15.739 2.59594 15.2133 2.59594 14.5727V12.2507C2.59594 11.3383 2.32322 10.8919 1.82309 10.077L1.82201 10.0752C1.78481 10.0129 1.74165 9.94502 1.69635 9.87374C1.61959 9.75297 1.5367 9.62254 1.46631 9.4937ZM8.25235 12.2508C8.25235 12.2019 8.256 12.1566 8.2601 12.1116C8.26065 12.1056 8.2612 12.0995 8.26176 12.0935C8.26648 12.0424 8.27122 11.9911 8.27122 11.9352H3.72015C3.73109 11.989 3.73568 12.049 3.73761 12.1116C3.73901 12.157 3.73901 12.2038 3.73901 12.2508V12.8269H8.25308L8.25235 12.2508ZM10.3284 6.89695C10.4193 6.51571 10.4723 6.15874 10.4716 5.82368C10.4716 3.3575 8.47035 1.35585 6.00417 1.35585C3.53798 1.35585 1.53669 3.35714 1.53669 5.82332C1.53669 6.1772 1.58992 6.53406 1.68017 6.89507L1.68086 6.8978C1.804 7.42617 1.99593 7.77768 2.34664 8.35068L2.35068 8.35727L2.35412 8.3642C2.38555 8.42736 2.42526 8.49163 2.47301 8.56892L2.47851 8.57782C2.52676 8.65594 2.58116 8.74465 2.63113 8.84421C2.7404 9.04414 2.8482 9.22429 2.95591 9.38516L2.95868 9.38929C3.25108 9.85378 3.50465 10.2831 3.67893 10.7741H8.34862C8.5093 10.3279 8.74617 9.93042 8.99163 9.51854C9.01641 9.47696 9.04127 9.43523 9.06616 9.39329L9.07107 9.38501C9.17878 9.22416 9.2868 9.04416 9.39605 8.84424C9.49187 8.65298 9.58764 8.49948 9.67923 8.35279C9.71219 8.29419 9.74387 8.23821 9.77432 8.18441C10.0564 7.68609 10.2325 7.37504 10.3271 6.90317L10.3284 6.89695ZM5.46111 2.24969C5.81978 2.20112 6.18743 2.4377 6.21846 2.81422C6.26536 3.16725 6.01435 3.5153 5.63895 3.56526C4.75364 3.68507 4.05083 4.40158 3.91342 5.29374C3.86325 5.61489 3.59063 5.87074 3.25574 5.87074H3.17005L3.15849 5.8692C2.78364 5.81943 2.5295 5.48942 2.57939 5.11376L2.5797 5.11146C2.79498 3.63958 3.99032 2.46571 5.45914 2.24996L5.46111 2.24969ZM4.81216 15.9567C4.7934 15.9014 4.77612 15.8427 4.76051 15.7802H7.26825C7.25151 15.8427 7.23316 15.9014 7.2134 15.9567C6.9042 16.8207 6.24912 16.8207 6.00494 16.8207C5.76078 16.8207 5.10569 16.8207 4.81216 15.9567ZM3.94359 14.7956H8.06723C8.17826 14.7956 8.27108 14.7027 8.27108 14.591V13.8291H3.73896V14.591C3.73896 14.7027 3.83184 14.7956 3.94359 14.7956Z" fill="#1679F9"/>
</svg>
