<svg width="15" height="18" viewBox="0 0 15 18" fill="none" xmlns="http://www.w3.org/2000/svg">
<path d="M7.5 2L8.5 1.5L13 4L13.5 5.5L12 6L10.5 11L11.5 14L1.5 8L4 7.5L7 4L7.5 2Z" fill="#ECF3FF"/>
<path d="M9.07995 0.971496C8.25419 0.491908 7.17475 0.778165 6.69516 1.60392C6.35975 2.18143 6.41478 2.87537 6.7501 3.40899L3.64016 6.55189C2.32542 6.50547 1.12159 6.85836 0.538005 7.86316C0.356613 8.17548 0.462844 8.57606 0.775163 8.75745L5.30097 11.386L2.42704 16.3343C2.24893 16.6308 2.35829 17.0667 2.65736 17.2404C2.95642 17.4141 3.38922 17.293 3.5585 16.9914L6.43242 12.0431L10.9582 14.6717C11.2705 14.8531 11.6711 14.7468 11.8525 14.4345C12.4361 13.4298 12.1461 12.2092 11.4543 11.0902L12.6431 6.83157C13.2727 6.85838 13.9028 6.56231 14.2382 5.98482C14.7178 5.15907 14.4315 4.07962 13.6058 3.60004L9.07995 0.971496ZM8.42281 2.10295L12.9486 4.73149C13.1674 4.85856 13.2338 5.10891 13.1067 5.32768C12.9797 5.54646 12.7293 5.61285 12.5105 5.48579C12.3352 5.38397 12.1231 5.36916 11.9359 5.44562C11.7484 5.52091 11.6067 5.67999 11.5518 5.87464L10.1193 11.0006C10.0663 11.1885 10.0996 11.389 10.2101 11.5498C10.6193 12.1411 10.7999 12.6578 10.8316 13.085L2.21599 8.08111C2.60274 7.89692 3.14103 7.79778 3.8574 7.8602C4.05181 7.87657 4.24249 7.80605 4.37946 7.66691L8.12196 3.88265C8.26382 3.73847 8.33181 3.5366 8.30426 3.3364C8.27788 3.13588 8.15994 2.95901 7.98462 2.85719C7.76584 2.73012 7.69945 2.47977 7.82652 2.261C7.95358 2.04222 8.20403 1.97588 8.42281 2.10295Z" fill="#1679F9"/>
</svg>
