<svg width="19" height="19" viewBox="0 0 19 19" fill="none" xmlns="http://www.w3.org/2000/svg">
<path d="M9.44083 9.65455C8.54183 8.75555 7.84915 7.56633 7.3199 6.40625C6.79076 7.56596 6.10007 8.75497 5.20141 9.65374C4.30195 10.5532 3.11133 11.2445 1.95068 11.7738C3.11133 12.3032 4.30195 12.9945 5.20141 13.894C6.10007 14.7927 6.79076 15.9817 7.3199 17.1414C7.84915 15.9814 8.54183 14.7921 9.44083 13.8931C10.3395 12.9946 11.5279 12.303 12.6875 11.7738C11.5279 11.2447 10.3395 10.5531 9.44083 9.65455Z" fill="#FFE6C9"/>
<path d="M9.18014 9.81262C8.36992 9.0024 7.74565 7.93062 7.26866 6.88511C6.79178 7.93029 6.16929 9.00187 5.35939 9.81188C4.54875 10.6225 3.47571 11.2456 2.42968 11.7226C3.47571 12.1997 4.54875 12.8227 5.35939 13.6334C6.16929 14.4434 6.79178 15.515 7.26866 16.5601C7.74565 15.5146 8.36992 14.4429 9.18014 13.6326C9.99004 12.8228 11.0611 12.1995 12.1062 11.7226C11.0611 11.2458 9.99004 10.6224 9.18014 9.81262ZM10.482 8.86017C11.4094 9.70045 12.7716 10.3393 14.041 10.798C14.7049 11.0378 14.7049 12.4075 14.041 12.6473C12.7716 13.1059 11.4094 13.7448 10.482 14.5851L10.3029 14.7554C9.37789 15.6804 8.68323 17.1403 8.19406 18.4943C7.95421 19.1581 6.58454 19.1581 6.34473 18.4943C5.88611 17.2248 5.24723 15.8627 4.40694 14.9352L4.23663 14.7561C3.31162 13.8311 1.85174 13.1365 0.497744 12.6473C-0.165914 12.4074 -0.165915 11.0379 0.497744 10.798C1.76711 10.3394 3.12931 9.7004 4.05681 8.86017L4.23663 8.68912C5.16147 7.76412 5.85561 6.30482 6.34473 4.95097C6.58454 4.28716 7.95421 4.28719 8.19406 4.95097C8.68323 6.30498 9.37789 7.76485 10.3029 8.68986L10.482 8.86017Z" fill="#F5982B"/>
<path d="M13.5142 6.54572C13.1176 6.54572 12.8066 6.20514 12.8425 5.81012L12.9233 4.92072L12.187 5.43516C11.8585 5.66463 11.4039 5.56253 11.2051 5.21465C11.007 4.86787 11.1482 4.42579 11.5107 4.25813L12.3139 3.88663L11.5107 3.51513C11.1482 3.34747 11.007 2.90539 11.2051 2.55861C11.4039 2.21073 11.8585 2.10863 12.187 2.3381L12.9233 2.85254L12.8425 1.96314C12.8066 1.56812 13.1176 1.22754 13.5142 1.22754C13.9109 1.22754 14.2219 1.56812 14.186 1.96314L14.1051 2.85254L14.8415 2.3381C15.1699 2.10863 15.6245 2.21073 15.8233 2.55861C16.0215 2.90539 15.8803 3.34747 15.5178 3.51513L14.7145 3.88663L15.5178 4.25813C15.8803 4.42579 16.0215 4.86787 15.8233 5.21465C15.6245 5.56253 15.1699 5.66463 14.8415 5.43516L14.1051 4.92072L14.186 5.81012C14.2219 6.20514 13.9109 6.54572 13.5142 6.54572Z" fill="#F5982B"/>
</svg>
