<svg width="24" height="18" viewBox="0 0 24 18" fill="none" xmlns="http://www.w3.org/2000/svg">
<path d="M10 9.5C10 11.433 8.433 13 6.5 13C4.567 13 3 11.433 3 9.5C3 7.567 4.567 6 6.5 6C8.433 6 10 7.567 10 9.5Z" fill="#ECF3FF"/>
<path d="M21 9.5C21 11.433 19.433 13 17.5 13C15.567 13 14 11.433 14 9.5C14 7.567 15.567 6 17.5 6C19.433 6 21 7.567 21 9.5Z" fill="#ECF3FF"/>
<path fill-rule="evenodd" clip-rule="evenodd" d="M21.4931 10.103H22.3129C22.6926 10.103 23 9.79558 23 9.41593C23 9.03627 22.6926 8.72887 22.3129 8.72887H22.0961L21.494 8.72904C21.1632 6.61937 19.3344 5.00007 17.1328 5.00007C15.1292 5.00007 13.4367 6.34089 12.8978 8.17117C12.594 8.0221 12.2813 7.94249 11.9632 7.94249L11.9614 7.94249C11.6611 7.94242 11.3646 8.01772 11.0946 8.14737C10.5479 6.32965 8.86163 5 6.86721 5C4.66563 5 2.83679 6.61926 2.50598 8.72898H1.68706C1.3074 8.72898 1 9.03639 1 9.41604C1 9.7957 1.30741 10.1031 1.68706 10.1031H2.50598C2.83679 12.2128 4.66561 13.8312 6.86721 13.8312C9.20468 13.8312 11.118 12.0052 11.2684 9.7055C11.5372 9.43283 11.7653 9.32246 11.9456 9.31669C12.1506 9.31583 12.4114 9.43014 12.7324 9.72579C12.8932 12.015 14.8012 13.8311 17.1319 13.8311C19.3334 13.8311 21.1623 12.2119 21.4931 10.103ZM3.82622 9.41701C3.82622 11.0937 5.18981 12.458 6.86724 12.458C8.54397 12.458 9.90915 11.0936 9.90915 9.41701C9.90915 7.74032 8.54467 6.37509 6.86724 6.37509C5.19066 6.37509 3.82622 7.73949 3.82622 9.41701ZM14.0908 9.41701C14.0908 11.0936 15.4552 12.458 17.1327 12.458C18.8094 12.458 20.1739 11.0936 20.1747 9.41689C20.1746 7.7403 18.8093 6.37509 17.1327 6.37509C15.4552 6.37509 14.0908 7.73953 14.0908 9.41701Z" fill="#1679F9"/>
</svg>
