<svg width="20" height="18" viewBox="0 0 20 18" fill="none" xmlns="http://www.w3.org/2000/svg">
<path d="M18.1742 6.47319C18.4439 6.09234 18.9743 6.00818 19.3487 6.28681V6.28681C19.7108 6.55633 19.7916 7.06566 19.5307 7.43406L17.094 10.8739L13.9656 8.15734C13.623 7.8598 13.5803 7.34325 13.8694 6.99348V6.99348C14.1686 6.63151 14.7072 6.58697 15.0618 6.89487L15.8863 7.61075C15.3344 4.80735 12.913 2.68964 10.0183 2.68964C8.18555 2.68964 6.4776 3.53352 5.33355 5.00459V5.00459C5.05178 5.36672 4.52103 5.42088 4.16572 5.13056V5.13056C3.81592 4.84473 3.75213 4.3272 4.02941 3.97058L4.04446 3.95123C5.50332 2.07575 7.68058 1 10.0181 1C13.7505 1 16.8639 3.76032 17.5224 7.39345L18.1742 6.47319ZM10.0179 16.6522C12.6159 16.6522 15.0119 15.3163 16.4273 13.0782L16.4416 13.0556C16.6829 12.6743 16.5711 12.1673 16.1953 11.9176V11.9176C15.8122 11.663 15.2903 11.7704 15.0443 12.1591V12.1591C13.9338 13.9144 12.0547 14.9623 10.0179 14.9623C6.84412 14.9623 4.2406 12.4172 4.04446 9.21403L4.93868 10.0858C5.27465 10.4133 5.81447 10.3997 6.13354 10.0557V10.0557C6.44159 9.72353 6.42855 9.20633 6.10415 8.89013L3.13198 5.99312L0.506717 9.28255C0.224913 9.63565 0.276316 10.1491 0.622527 10.4393V10.4393C0.980705 10.7396 1.51585 10.686 1.80744 10.3208L2.41749 9.55656C2.77824 13.5303 6.04846 16.6522 10.0179 16.6522Z" fill="#F29C38"/>
</svg>
