<svg width="19" height="18" viewBox="0 0 19 18" fill="none" xmlns="http://www.w3.org/2000/svg">
<path fill-rule="evenodd" clip-rule="evenodd" d="M11.5198 5.3229C11.6039 5.36479 11.706 5.40717 11.8552 5.46901C11.8881 5.48264 11.9232 5.49722 11.961 5.51295C12.1598 5.59579 12.4014 5.69919 12.6791 5.83802C12.9322 5.96461 13.0944 6.17893 13.1913 6.37136C13.2916 6.57075 13.3483 6.79652 13.3635 7.02305C13.3938 7.47405 13.2625 8.01288 12.848 8.42741C12.5873 8.68812 12.2368 9.04027 11.9496 9.44236C11.6535 9.85678 11.49 10.2361 11.49 10.5484C11.49 11.4043 11.8045 11.9985 12.2396 12.3852C12.6866 12.7826 13.3011 12.9952 13.9368 12.9952C15.0344 12.9952 15.7647 12.5637 16.2278 12.0491C16.7126 11.5104 16.8997 10.8875 16.8997 10.5484C16.8997 10.0277 16.8977 9.57859 16.7861 9.07653C16.6764 8.58289 16.4534 8.01131 15.9766 7.29608C15.4683 6.53361 14.6385 5.94862 13.6461 5.45239C13.4769 5.36782 13.1423 5.25235 12.7647 5.15634C12.3828 5.0592 12.0463 5.00488 11.8722 5.00488C11.8722 5.00488 11.8467 5.00626 11.7991 5.03164C11.7499 5.05788 11.6924 5.10145 11.6368 5.16073C11.5857 5.2152 11.546 5.27266 11.5198 5.3229Z" fill="#ECF3FF"/>
<path fill-rule="evenodd" clip-rule="evenodd" d="M2.22952 5.3229C2.31357 5.36479 2.41576 5.40717 2.56491 5.46901C2.59778 5.48264 2.63293 5.49722 2.67067 5.51295C2.86951 5.59579 3.11111 5.69919 3.38878 5.83802C3.64196 5.96461 3.80412 6.17893 3.90097 6.37136C4.00133 6.57075 4.05804 6.79652 4.07325 7.02305C4.10352 7.47405 3.97224 8.01288 3.55771 8.42741C3.297 8.68812 2.94649 9.04027 2.65928 9.44236C2.36327 9.85678 2.19971 10.2361 2.19971 10.5484C2.19971 11.4043 2.5142 11.9985 2.94929 12.3852C3.39634 12.7826 4.01078 12.9952 4.64648 12.9952C5.74412 12.9952 6.47441 12.5637 6.93753 12.0491C7.42233 11.5104 7.60938 10.8875 7.60938 10.5484C7.60938 10.0277 7.6074 9.57859 7.49583 9.07653C7.38613 8.58289 7.16311 8.01131 6.68629 7.29608C6.17797 6.53361 5.34825 5.94862 4.35579 5.45239C4.18666 5.36782 3.85198 5.25235 3.47445 5.15634C3.09249 5.0592 2.75605 5.00488 2.58197 5.00488C2.58197 5.00488 2.55641 5.00626 2.50882 5.03164C2.4596 5.05788 2.40207 5.10145 2.34649 5.16073C2.29543 5.2152 2.25567 5.27266 2.22952 5.3229Z" fill="#ECF3FF"/>
<path fill-rule="evenodd" clip-rule="evenodd" d="M10.6886 4.27181C10.9477 3.99536 11.3653 3.70508 11.8724 3.70508C12.2145 3.70508 12.6795 3.79342 13.0853 3.89664C13.4956 4.00098 13.9351 4.14358 14.2276 4.28983C15.2997 4.82586 16.3658 5.53616 17.0584 6.57517C17.6139 7.40833 17.907 8.12707 18.0554 8.79472C18.1999 9.44527 18.1999 10.0217 18.1999 10.5284V10.5486C18.1999 11.2418 17.8708 12.1673 17.1943 12.9189C16.4961 13.6947 15.42 14.2954 13.937 14.2954C13.0243 14.2954 12.0903 13.9919 11.3761 13.357C10.6499 12.7115 10.1902 11.7573 10.1902 10.5486C10.1902 9.82872 10.5428 9.17576 10.8919 8.68695C11.2459 8.19139 11.6641 7.77317 11.9204 7.51694L11.929 7.50836C12.0306 7.40676 12.0767 7.2601 12.0666 7.1103C12.0625 7.04815 12.0492 7.00044 12.037 6.97083C11.8234 6.86631 11.6332 6.78484 11.4612 6.71314C11.4321 6.70104 11.4026 6.68884 11.3729 6.67656C11.2221 6.61415 11.0663 6.54967 10.9366 6.48484C10.7811 6.40711 10.5828 6.29157 10.4294 6.09984C10.2574 5.88488 10.1902 5.63756 10.1902 5.38734C10.1902 4.95186 10.435 4.54223 10.6886 4.27181ZM11.52 5.3231C11.604 5.36499 11.7062 5.40736 11.8554 5.46921C11.8883 5.48284 11.9234 5.49742 11.9612 5.51314C12.16 5.59599 12.4016 5.69938 12.6793 5.83822C12.9324 5.9648 13.0946 6.17913 13.1915 6.37156C13.2918 6.57095 13.3485 6.79671 13.3637 7.02325C13.394 7.47425 13.2627 8.01307 12.8482 8.4276C12.5875 8.68832 12.237 9.04046 11.9498 9.44256C11.6537 9.85698 11.4902 10.2363 11.4902 10.5486C11.4902 11.4045 11.8047 11.9986 12.2398 12.3854C12.6868 12.7828 13.3013 12.9954 13.937 12.9954C15.0346 12.9954 15.7649 12.5639 16.228 12.0493C16.7128 11.5106 16.8999 10.8877 16.8999 10.5486C16.8999 10.0279 16.8979 9.57879 16.7863 9.07673C16.6766 8.58309 16.4536 8.0115 15.9768 7.29628C15.4685 6.5338 14.6387 5.94881 13.6463 5.45258C13.4771 5.36802 13.1425 5.25255 12.7649 5.15653C12.383 5.05939 12.0465 5.00508 11.8724 5.00508C11.8725 5.00508 11.8725 5.00508 11.8724 5.00508C11.8712 5.00514 11.8469 5.00645 11.7993 5.03183C11.7501 5.05808 11.6925 5.10164 11.637 5.16093C11.5859 5.21539 11.5462 5.27286 11.52 5.3231Z" fill="#1679F9"/>
<path fill-rule="evenodd" clip-rule="evenodd" d="M1.39828 4.27181C1.65745 3.99536 2.07505 3.70508 2.58216 3.70508C2.92421 3.70508 3.3892 3.79342 3.79506 3.89664C4.20534 4.00098 4.64486 4.14358 4.93737 4.28983C6.00942 4.82586 7.07548 5.53616 7.76815 6.57517C8.32359 7.40833 8.6167 8.12707 8.76507 8.79472C8.90964 9.44527 8.90961 10.0217 8.90958 10.5284L8.90958 10.5486C8.90958 11.2418 8.58051 12.1673 7.90401 12.9189C7.20584 13.6947 6.12968 14.2954 4.64668 14.2954C3.73399 14.2954 2.80005 13.9919 2.08581 13.357C1.35961 12.7115 0.899902 11.7573 0.899902 10.5486C0.899902 9.82872 1.25247 9.17576 1.60162 8.68695C1.95559 8.19139 2.37384 7.77317 2.63009 7.51694L2.63867 7.50836C2.74027 7.40676 2.78642 7.2601 2.77636 7.1103C2.77219 7.04815 2.75887 7.00044 2.74668 6.97083C2.53316 6.86631 2.34294 6.78484 2.17087 6.71314C2.14182 6.70104 2.11234 6.68884 2.08266 6.67656C1.93181 6.61415 1.77597 6.54967 1.64631 6.48484C1.49085 6.40711 1.29249 6.29157 1.13911 6.09984C0.967147 5.88488 0.899902 5.63756 0.899902 5.38734C0.899902 4.95186 1.14476 4.54223 1.39828 4.27181ZM2.22971 5.3231C2.31376 5.36499 2.41596 5.40736 2.5651 5.46921C2.59798 5.48284 2.63313 5.49742 2.67087 5.51314C2.8697 5.59599 3.11131 5.69938 3.38898 5.83822C3.64215 5.9648 3.80431 6.17913 3.90117 6.37156C4.00153 6.57095 4.05824 6.79671 4.07344 7.02325C4.10371 7.47425 3.97244 8.01307 3.55791 8.4276C3.29719 8.68832 2.94669 9.04046 2.65947 9.44256C2.36346 9.85698 2.1999 10.2363 2.1999 10.5486C2.1999 11.4045 2.51439 11.9986 2.94948 12.3854C3.39653 12.7828 4.01098 12.9954 4.64668 12.9954C5.74432 12.9954 6.47461 12.5639 6.93773 12.0493C7.42252 11.5106 7.60958 10.8877 7.60958 10.5486C7.60958 10.0279 7.60759 9.57879 7.49603 9.07673C7.38633 8.58309 7.16331 8.0115 6.68649 7.29628C6.17817 6.5338 5.34844 5.94881 4.35599 5.45258C4.18686 5.36802 3.85218 5.25255 3.47464 5.15653C3.09269 5.05939 2.75624 5.00508 2.58216 5.00508C2.58219 5.00508 2.58221 5.00508 2.58216 5.00508C2.58096 5.00514 2.5566 5.00645 2.50901 5.03183C2.4598 5.05808 2.40226 5.10164 2.34668 5.16093C2.29562 5.21539 2.25587 5.27286 2.22971 5.3231Z" fill="#1679F9"/>
</svg>
