<svg width="18" height="18" viewBox="0 0 18 18" fill="none" xmlns="http://www.w3.org/2000/svg">
<path d="M9 0C4.03754 0 0 4.03754 0 9C0 13.9625 4.03754 18 9 18C13.9625 18 18 13.9625 18 9C18 4.03754 13.9625 0 9 0ZM9 1.38462C13.2148 1.38462 16.6154 4.7853 16.6154 9C16.6154 13.2134 13.2147 16.6154 9 16.6154C4.7853 16.6154 1.38462 13.2134 1.38462 9C1.38462 4.78523 4.7853 1.38462 9 1.38462ZM9 3.80769C8.61733 3.80769 8.30769 4.11734 8.30769 4.5V9C8.30769 9.19065 8.38747 9.36104 8.51322 9.48676C9.41108 10.3629 10.3129 11.2824 11.2067 12.1803C11.4771 12.4507 11.9098 12.4507 12.1803 12.1803C12.4507 11.9098 12.4507 11.4771 12.1803 11.2067L9.69229 8.71872V4.49979C9.69229 4.11712 9.38265 3.80749 8.99998 3.80749L9 3.80769Z" fill="#D93562"/>
</svg>
