<svg width="18" height="18" viewBox="0 0 18 18" fill="none" xmlns="http://www.w3.org/2000/svg">
<path fill-rule="evenodd" clip-rule="evenodd" d="M9.5 1H16L17 2V8.5L8.5 17H6L0.5 11L1.5 9L9.5 1ZM13 7C14.1046 7 15 6.10457 15 5C15 3.89543 14.1046 3 13 3C11.8954 3 11 3.89543 11 5C11 6.10457 11.8954 7 13 7Z" fill="#ECF3FF"/>
<path d="M12.7446 2.7365C11.324 2.7365 10.2007 3.89035 10.2007 5.27496C10.2007 6.69255 11.3571 7.81342 12.7446 7.81342C14.1322 7.81342 15.2885 6.69255 15.2885 5.27496C15.2885 3.89035 14.1322 2.7365 12.7446 2.7365ZM12.7446 6.52771C12.0508 6.52771 11.5222 5.96727 11.5222 5.30793C11.5222 4.61562 12.0839 4.08815 12.7446 4.08815C13.4054 4.08815 13.967 4.64859 13.967 5.30793C13.967 5.96727 13.4054 6.52771 12.7446 6.52771Z" fill="#1679F9"/>
<path d="M15.5855 0L10.4977 0.164835C9.63872 0.230769 8.81278 0.593407 8.18506 1.21978L0.81768 8.57143C-0.27256 9.65934 -0.27256 11.4066 0.81768 12.4945L5.50902 17.1758C6.03762 17.7033 6.76445 18 7.45824 18C8.15203 18 8.87885 17.7363 9.40746 17.1758L16.7748 9.82418C17.4026 9.1978 17.766 8.40659 17.832 7.51648L17.9972 2.43956C18.0303 1.78022 17.766 1.15385 17.3034 0.692308C16.874 0.230769 16.2462 0 15.5855 0ZM16.5436 7.41758C16.5105 7.97802 16.2793 8.47253 15.8828 8.86813L8.4824 16.2527C7.92076 16.8132 6.99571 16.8132 6.43407 16.2527L1.74273 11.5714C1.18109 11.011 1.18109 10.0879 1.74273 9.52747L9.11012 2.17582C9.50657 1.78022 10.0021 1.54945 10.5307 1.51648L15.6185 1.35165C15.9159 1.35165 16.1802 1.45055 16.3784 1.64835C16.5766 1.84615 16.6757 2.10989 16.6757 2.40659L16.5436 7.41758Z" fill="#1679F9"/>
</svg>
