<svg width="16" height="16" viewBox="0 0 16 16" fill="none" xmlns="http://www.w3.org/2000/svg">
<g clip-path="url(#clip0_2308_123)">
<path d="M8 0C5.94911 0.00584975 3.97879 0.799131 2.496 2.216V0.8C2.496 0.587827 2.41171 0.384344 2.26169 0.234314C2.11166 0.0842854 1.90817 0 1.696 0C1.48383 0 1.28034 0.0842854 1.13031 0.234314C0.980285 0.384344 0.896 0.587827 0.896 0.8V4.4C0.896 4.61217 0.980285 4.81565 1.13031 4.96568C1.28034 5.11571 1.48383 5.2 1.696 5.2H5.296C5.50817 5.2 5.71165 5.11571 5.86168 4.96568C6.01171 4.81565 6.096 4.61217 6.096 4.4C6.096 4.18783 6.01171 3.98434 5.86168 3.83431C5.71165 3.68428 5.50817 3.6 5.296 3.6H3.376C4.40462 2.52509 5.7756 1.84212 7.25323 1.66854C8.73085 1.49495 10.2228 1.84158 11.4725 2.64884C12.7223 3.45609 13.6517 4.67353 14.1011 6.09183C14.5504 7.51013 14.4916 9.04068 13.9347 10.4203C13.3779 11.8 12.3577 12.9425 11.0497 13.6514C9.74173 14.3604 8.22759 14.5915 6.76764 14.3051C5.3077 14.0186 3.99317 13.2324 3.05007 12.0818C2.10697 10.9311 1.59423 9.48777 1.6 8C1.6 7.78783 1.51571 7.58434 1.36569 7.43431C1.21566 7.28428 1.01217 7.2 0.8 7.2C0.587827 7.2 0.384344 7.28428 0.234314 7.43431C0.0842854 7.58434 0 7.78783 0 8C0 9.58225 0.469192 11.129 1.34824 12.4446C2.22729 13.7602 3.47672 14.7855 4.93853 15.391C6.40034 15.9965 8.00887 16.155 9.56072 15.8463C11.1126 15.5376 12.538 14.7757 13.6569 13.6569C14.7757 12.538 15.5376 11.1126 15.8463 9.56072C16.155 8.00887 15.9965 6.40034 15.391 4.93853C14.7855 3.47672 13.7602 2.22729 12.4446 1.34824C11.129 0.469192 9.58225 0 8 0Z" fill="#1679F9"/>
</g>
<defs>
<clipPath id="clip0_2308_123">
<rect width="16" height="16" fill="white"/>
</clipPath>
</defs>
</svg>
