<svg width="22" height="16" viewBox="0 0 22 16" fill="none" xmlns="http://www.w3.org/2000/svg">
<path d="M13.7678 11C12.6838 13.0799 10.5077 14.5 8 14.5C4.41015 14.5 1.5 11.5899 1.5 8C1.5 4.41015 4.41015 1.5 8 1.5C10.5077 1.5 12.6838 2.92011 13.7678 5H15.4185C14.2317 2.06817 11.3574 0 8 0C3.58172 0 0 3.58172 0 8C0 12.4183 3.58172 16 8 16C11.3574 16 14.2317 13.9318 15.4185 11H13.7678Z" fill="#D93562"/>
<path d="M8.75 8.7497C8.33579 8.7497 8 8.41391 8 7.9997C8 7.58549 8.33579 7.2497 8.75 7.2497H19.0176L17.4695 5.7016C17.1766 5.40871 17.1766 4.93384 17.4695 4.64094C17.7624 4.34805 18.2373 4.34805 18.5301 4.64094L21.8889 7.9997L18.5301 11.3585C18.2373 11.6514 17.7624 11.6514 17.4695 11.3585C17.1766 11.0656 17.1766 10.5907 17.4695 10.2978L19.0176 8.7497H8.75Z" fill="#D93562"/>
</svg>
