<svg width="14" height="18" viewBox="0 0 14 18" fill="none" xmlns="http://www.w3.org/2000/svg">
<path fill-rule="evenodd" clip-rule="evenodd" d="M3 5.65001C3 5.29103 3.29102 5.00001 3.65 5.00001H10.35C10.709 5.00001 11 5.29103 11 5.65001C11 6.009 10.709 6.30001 10.35 6.30001H3.65C3.29102 6.30001 3 6.009 3 5.65001Z" fill="#1679F9"/>
<path fill-rule="evenodd" clip-rule="evenodd" d="M7 8.65001C7 8.29103 7.29102 8.00001 7.65 8.00001H11.35C11.709 8.00001 12 8.29103 12 8.65001C12 9.009 11.709 9.30001 11.35 9.30001H7.65C7.29102 9.30001 7 9.009 7 8.65001Z" fill="#1679F9"/>
<path fill-rule="evenodd" clip-rule="evenodd" d="M6 11.65C6 11.291 6.29102 11 6.65 11H10.35C10.709 11 11 11.291 11 11.65C11 12.009 10.709 12.3 10.35 12.3H6.65C6.29102 12.3 6 12.009 6 11.65Z" fill="#1679F9"/>
<path fill-rule="evenodd" clip-rule="evenodd" d="M3 11.65C3 11.291 3.29102 11 3.65 11H4.74286C5.10184 11 5.39286 11.291 5.39286 11.65C5.39286 12.009 5.10184 12.3 4.74286 12.3H3.65C3.29102 12.3 3 12.009 3 11.65Z" fill="#1679F9"/>
<path fill-rule="evenodd" clip-rule="evenodd" d="M2 8.65001C2 8.29103 2.29102 8.00001 2.65 8.00001H5.3381C5.69708 8.00001 5.9881 8.29103 5.9881 8.65001C5.9881 9.009 5.69708 9.30001 5.3381 9.30001H2.65C2.29102 9.30001 2 9.009 2 8.65001Z" fill="#1679F9"/>
<path fill-rule="evenodd" clip-rule="evenodd" d="M14 2.3L1.24768e-07 2.30001L2.38418e-07 1.00001L14 1V2.3Z" fill="#1679F9"/>
<path fill-rule="evenodd" clip-rule="evenodd" d="M14 16.3L1.13679e-07 16.3L0 15L14 15V16.3Z" fill="#1679F9"/>
</svg>
