<svg width="14" height="14" viewBox="0 0 14 14" fill="none" xmlns="http://www.w3.org/2000/svg">
<g clip-path="url(#clip0_2310_125)">
<path d="M6.30098 9.3308C5.00761 8.65708 3.56797 8.30546 2.10654 8.30635C1.87585 8.30635 1.64516 8.30635 1.40747 8.30635V1.38435C1.6403 1.37107 1.87371 1.37107 2.10654 1.38435C3.59793 1.38272 5.05678 1.81607 6.30098 2.63031V9.3308ZM12.5926 8.33404C12.3549 8.33404 12.1243 8.33404 11.8936 8.33404C10.4321 8.33314 8.99249 8.68476 7.69912 9.35849V2.63031C8.94332 1.81607 10.4022 1.38272 11.8936 1.38435C12.1264 1.37107 12.3598 1.37107 12.5926 1.38435V8.33404Z" fill="#F2F5FD"/>
<path d="M13.4105 0.131521C12.9094 0.0460573 12.402 0.002066 11.8935 3.01124e-06C10.1587 -0.00140526 8.46 0.491169 7 1.41901C5.53625 0.503352 3.83785 0.0228669 2.10649 0.0346129C1.59802 0.0366759 1.0906 0.0806672 0.589506 0.166131C0.425368 0.19415 0.276727 0.279277 0.170351 0.406181C0.0639748 0.533085 0.00685407 0.693426 0.00927546 0.85833V9.16472C0.00777827 9.26643 0.0289377 9.36721 0.0712482 9.4599C0.113559 9.55259 0.17598 9.63491 0.254072 9.701C0.332163 9.76709 0.424005 9.81533 0.523063 9.84227C0.62212 9.86922 0.725959 9.87422 0.82719 9.85692C1.82897 9.68518 2.85534 9.71367 3.84583 9.94073C4.83632 10.1678 5.77091 10.5888 6.59454 11.179L6.67843 11.2275H6.75532C6.83285 11.2595 6.91601 11.2759 7 11.2759C7.08399 11.2759 7.16715 11.2595 7.24468 11.2275H7.32157L7.40546 11.179C8.22335 10.5756 9.15525 10.141 10.1459 9.90077C11.1366 9.66059 12.1659 9.61979 13.1728 9.78078C13.274 9.79808 13.3779 9.79308 13.4769 9.76613C13.576 9.73918 13.6678 9.69095 13.7459 9.62486C13.824 9.55877 13.8864 9.47645 13.9288 9.38376C13.9711 9.29107 13.9922 9.19029 13.9907 9.08858V0.782188C13.9835 0.624473 13.9219 0.473959 13.8164 0.355612C13.7109 0.237265 13.5676 0.158196 13.4105 0.131521ZM6.30093 9.33085C5.00756 8.65712 3.56792 8.3055 2.10649 8.30639C1.8758 8.30639 1.64511 8.30639 1.40742 8.30639V1.3844C1.64025 1.37111 1.87366 1.37111 2.10649 1.3844C3.59788 1.38277 5.05673 1.81612 6.30093 2.63036V9.33085ZM12.5926 8.33408C12.3549 8.33408 12.1242 8.33408 11.8935 8.33408C10.4321 8.33319 8.99244 8.68481 7.69907 9.35854V2.63036C8.94327 1.81612 10.4021 1.38277 11.8935 1.3844C12.1263 1.37111 12.3597 1.37111 12.5926 1.3844V8.33408ZM13.4105 11.2067C12.9094 11.1212 12.402 11.0773 11.8935 11.0752C10.1587 11.0738 8.46 11.5664 7 12.4942C5.54 11.5664 3.84134 11.0738 2.10649 11.0752C1.59802 11.0773 1.0906 11.1212 0.589506 11.2067C0.498505 11.221 0.411258 11.253 0.33278 11.3008C0.254302 11.3486 0.186142 11.4113 0.132219 11.4853C0.0782963 11.5592 0.0396749 11.643 0.0185758 11.7318C-0.00252342 11.8207 -0.00568408 11.9127 0.00927546 12.0027C0.0448014 12.1825 0.150831 12.341 0.304137 12.4435C0.457444 12.546 0.645529 12.5841 0.82719 12.5496C1.82897 12.3778 2.85534 12.4063 3.84583 12.6334C4.83632 12.8604 5.77091 13.2815 6.59454 13.8717C6.71293 13.9551 6.85466 14 7 14C7.14534 14 7.28707 13.9551 7.40546 13.8717C8.22909 13.2815 9.16368 12.8604 10.1542 12.6334C11.1447 12.4063 12.171 12.3778 13.1728 12.5496C13.3545 12.5841 13.5426 12.546 13.6959 12.4435C13.8492 12.341 13.9552 12.1825 13.9907 12.0027C14.0057 11.9127 14.0025 11.8207 13.9814 11.7318C13.9603 11.643 13.9217 11.5592 13.8678 11.4853C13.8139 11.4113 13.7457 11.3486 13.6672 11.3008C13.5887 11.253 13.5015 11.221 13.4105 11.2067Z" fill="#1679F9"/>
</g>
<defs>
<clipPath id="clip0_2310_125">
<rect width="14" height="14" fill="white"/>
</clipPath>
</defs>
</svg>
