<svg width="20" height="20" viewBox="0 0 20 20" fill="none" xmlns="http://www.w3.org/2000/svg">
<path fill-rule="evenodd" clip-rule="evenodd" d="M1 10C1 5.02944 5.02944 1 10 1C14.9706 1 19 5.02944 19 10C19 14.9706 14.9706 19 10 19C5.02944 19 1 14.9706 1 10ZM10 2.43558C5.82229 2.43558 2.43558 5.82229 2.43558 10C2.43558 14.1777 5.82229 17.5644 10 17.5644C14.1777 17.5644 17.5644 14.1777 17.5644 10C17.5644 5.82229 14.1777 2.43558 10 2.43558Z" fill="#D93562"/>
<path d="M10.7269 13.8454C10.7269 13.9404 10.6863 14.0312 10.6141 14.0983C10.5419 14.1654 10.4441 14.2032 10.3417 14.2032H9.76402C9.55112 14.2032 9.37886 14.0431 9.37886 13.8454V13.3087C9.37886 13.1109 9.55113 12.9509 9.76402 12.9509H10.3417C10.4441 12.9509 10.5419 12.9886 10.6141 13.0557C10.6863 13.1228 10.7269 13.2136 10.7269 13.3087V13.8454ZM10.7269 11.0388C10.7269 11.1219 10.6916 11.2016 10.6284 11.2603C10.5652 11.319 10.4794 11.3518 10.3899 11.3518H9.71587C9.53007 11.3518 9.37887 11.2121 9.37887 11.0388V6.15029C9.37887 5.97698 9.53007 5.83722 9.71587 5.83722H10.3899C10.5757 5.83722 10.7269 5.97698 10.7269 6.15029L10.7269 11.0388Z" fill="#D93562"/>
<path fill-rule="evenodd" clip-rule="evenodd" d="M1 10C1 5.02944 5.02944 1 10 1C14.9706 1 19 5.02944 19 10C19 14.9706 14.9706 19 10 19C5.02944 19 1 14.9706 1 10ZM10 2.43558C5.82229 2.43558 2.43558 5.82229 2.43558 10C2.43558 14.1777 5.82229 17.5644 10 17.5644C14.1777 17.5644 17.5644 14.1777 17.5644 10C17.5644 5.82229 14.1777 2.43558 10 2.43558Z" stroke="#D93562" stroke-width="0.3"/>
<path d="M10.7269 13.8454C10.7269 13.9404 10.6863 14.0312 10.6141 14.0983C10.5419 14.1654 10.4441 14.2032 10.3417 14.2032H9.76402C9.55112 14.2032 9.37886 14.0431 9.37886 13.8454V13.3087C9.37886 13.1109 9.55113 12.9509 9.76402 12.9509H10.3417C10.4441 12.9509 10.5419 12.9886 10.6141 13.0557C10.6863 13.1228 10.7269 13.2136 10.7269 13.3087V13.8454ZM10.7269 11.0388C10.7269 11.1219 10.6916 11.2016 10.6284 11.2603C10.5652 11.319 10.4794 11.3518 10.3899 11.3518H9.71587C9.53007 11.3518 9.37887 11.2121 9.37887 11.0388V6.15029C9.37887 5.97698 9.53007 5.83722 9.71587 5.83722H10.3899C10.5757 5.83722 10.7269 5.97698 10.7269 6.15029L10.7269 11.0388Z" stroke="#D93562" stroke-width="0.3"/>
</svg>
