<svg width="17" height="18" viewBox="0 0 17 18" fill="none" xmlns="http://www.w3.org/2000/svg">
<path d="M14 12V3L15.5 4L16.5 5.5V13.5L15.5 15.5L14 16.5H4.5L3.5 16L3 14.5H9.5H12.5L14 12Z" fill="#E5FFE1"/>
<path fill-rule="evenodd" clip-rule="evenodd" d="M14.934 4.39173C14.8958 4.35871 14.8564 4.32694 14.816 4.29647C14.7775 4.2675 14.7382 4.23971 14.6979 4.21315V11.8694C14.6979 13.7077 13.2077 15.1979 11.3694 15.1979H3.71315C3.73971 15.2382 3.7675 15.2775 3.79647 15.316C3.82694 15.3564 3.85871 15.3958 3.89173 15.434C4.31268 15.922 4.93556 16.2309 5.63059 16.2309H13.4354C14.7032 16.2309 15.7309 15.2032 15.7309 13.9354V6.13059C15.7309 5.43556 15.422 4.81268 14.934 4.39173ZM14.7023 2.79774C14.1915 1.45478 12.8922 0.5 11.3694 0.5H3.56462C1.59594 0.5 0 2.09594 0 4.06462V11.8694C0 13.3922 0.954783 14.6915 2.29774 15.2023C2.80851 16.5452 4.10776 17.5 5.63059 17.5H13.4354C15.4041 17.5 17 15.9041 17 13.9354V6.13059C17 4.60776 16.0452 3.30851 14.7023 2.79774ZM11.3694 2.00521H3.56462C2.42724 2.00521 1.50521 2.92724 1.50521 4.06462V11.8694C1.50521 12.9431 2.31526 13.8311 3.35734 13.9299C3.3924 13.9332 3.42225 13.9322 3.46262 13.9308C3.4901 13.9299 3.52244 13.9288 3.56462 13.9288H11.3694C12.5068 13.9288 13.4288 13.0068 13.4288 11.8694V4.06462C13.4288 3.99813 13.4257 3.93243 13.4195 3.86767C13.3205 2.8228 12.4403 2.00521 11.3694 2.00521Z" fill="#3AAF2A"/>
</svg>
