<svg width="32" height="30" viewBox="0 0 32 30" fill="none" xmlns="http://www.w3.org/2000/svg">
<g clip-path="url(#clip0_2299_71)">
<path d="M0.5 28H3.5V30L0.5 28Z" fill="#71096C"/>
<path d="M31.5 4C31.5 2.93913 31.0786 1.92172 30.3284 1.17157C29.5783 0.421427 28.5609 0 27.5 0L0.5 0V28H27.5C28.5609 28 29.5783 27.5786 30.3284 26.8284C31.0786 26.0783 31.5 25.0609 31.5 24V4Z" fill="#B00CA9"/>
<path d="M16 6.5C14.0773 6.50548 12.2301 7.24919 10.84 8.5775V7.25C10.84 7.05109 10.761 6.86032 10.6203 6.71967C10.4797 6.57902 10.2889 6.5 10.09 6.5C9.89109 6.5 9.70032 6.57902 9.55967 6.71967C9.41902 6.86032 9.34 7.05109 9.34 7.25V10.625C9.34 10.8239 9.41902 11.0147 9.55967 11.1553C9.70032 11.296 9.89109 11.375 10.09 11.375H13.465C13.6639 11.375 13.8547 11.296 13.9953 11.1553C14.136 11.0147 14.215 10.8239 14.215 10.625C14.215 10.4261 14.136 10.2353 13.9953 10.0947C13.8547 9.95402 13.6639 9.875 13.465 9.875H11.665C12.6293 8.86727 13.9146 8.22699 15.2999 8.06425C16.6852 7.90151 18.0839 8.22648 19.2555 8.98328C20.4271 9.74009 21.2985 10.8814 21.7197 12.2111C22.141 13.5408 22.0859 14.9756 21.5638 16.269C21.0417 17.5625 20.0854 18.6336 18.8591 19.2982C17.6329 19.9629 16.2134 20.1796 14.8447 19.911C13.476 19.6424 12.2436 18.9054 11.3594 17.8266C10.4753 16.7479 9.99459 15.3948 10 14C10 13.8011 9.92098 13.6103 9.78033 13.4697C9.63968 13.329 9.44891 13.25 9.25 13.25C9.05109 13.25 8.86032 13.329 8.71967 13.4697C8.57902 13.6103 8.5 13.8011 8.5 14C8.5 15.4834 8.93987 16.9334 9.76398 18.1668C10.5881 19.4001 11.7594 20.3614 13.1299 20.9291C14.5003 21.4968 16.0083 21.6453 17.4632 21.3559C18.918 21.0665 20.2544 20.3522 21.3033 19.3033C22.3522 18.2544 23.0665 16.918 23.3559 15.4632C23.6453 14.0083 23.4968 12.5003 22.9291 11.1299C22.3614 9.75943 21.4001 8.58809 20.1668 7.76398C18.9334 6.93987 17.4834 6.5 16 6.5Z" fill="white"/>
</g>
<defs>
<clipPath id="clip0_2299_71">
<rect width="32" height="30" fill="white" transform="matrix(-1 0 0 1 32 0)"/>
</clipPath>
</defs>
</svg>
