<svg width="32" height="30" viewBox="0 0 32 30" fill="none" xmlns="http://www.w3.org/2000/svg">
<g clip-path="url(#clip0_2308_114)">
<path d="M0.5 28H3.5V30L0.5 28Z" fill="#007BB0"/>
<path d="M31.5 4C31.5 1.79086 29.7091 0 27.5 0H0.5V28H27.5C29.7091 28 31.5 26.2091 31.5 24V4Z" fill="#16B9FF"/>
<path d="M22.1312 8.15262C21.6374 8.06756 21.1374 8.02378 20.6364 8.02173C18.9269 8.02033 17.253 8.51053 15.8143 9.43391C14.3719 8.52266 12.6983 8.04449 10.9922 8.05617C10.4912 8.05823 9.99119 8.10201 9.4974 8.18706C9.33566 8.21494 9.18919 8.29966 9.08437 8.42595C8.97954 8.55225 8.92326 8.71182 8.92564 8.87593V17.1423C8.92417 17.2435 8.94502 17.3438 8.98671 17.4361C9.0284 17.5283 9.08992 17.6103 9.16687 17.676C9.24382 17.7418 9.33432 17.7898 9.43193 17.8166C9.52954 17.8434 9.63186 17.8484 9.73162 17.8312C10.7188 17.6603 11.7302 17.6886 12.7062 17.9146C13.6822 18.1406 14.6032 18.5596 15.4148 19.1469L15.4974 19.1951H15.5732C15.6496 19.227 15.7315 19.2434 15.8143 19.2434C15.8971 19.2434 15.979 19.227 16.0554 19.1951H16.1312L16.2139 19.1469C17.0198 18.5464 17.9381 18.1139 18.9143 17.8748C19.8905 17.6358 20.9048 17.5952 21.897 17.7554C21.9968 17.7726 22.0991 17.7677 22.1967 17.7408C22.2943 17.714 22.3848 17.666 22.4617 17.6002C22.5387 17.5345 22.6002 17.4526 22.6419 17.3603C22.6836 17.2681 22.7044 17.1678 22.703 17.0665V8.80015C22.6958 8.64319 22.6352 8.49341 22.5312 8.37563C22.4272 8.25785 22.2861 8.17916 22.1312 8.15262ZM15.1254 17.3077C13.851 16.6372 12.4323 16.2872 10.9922 16.2881C10.7649 16.2881 10.5376 16.2881 10.3034 16.2881V9.39946C10.5328 9.38624 10.7628 9.38624 10.9922 9.39946C12.4619 9.39784 13.8994 9.8291 15.1254 10.6394V17.3077ZM21.3252 16.3157C21.091 16.3157 20.8637 16.3157 20.6364 16.3157C19.1963 16.3148 17.7777 16.6647 16.5032 17.3352V10.6394C17.7292 9.8291 19.1668 9.39784 20.6364 9.39946C20.8658 9.38624 21.0958 9.38624 21.3252 9.39946V16.3157ZM22.1312 19.1745C21.6374 19.0894 21.1374 19.0456 20.6364 19.0436C18.9269 19.0422 17.253 19.5324 15.8143 20.4558C14.3756 19.5324 12.7018 19.0422 10.9922 19.0436C10.4912 19.0456 9.99119 19.0894 9.4974 19.1745C9.40773 19.1887 9.32176 19.2205 9.24443 19.2681C9.16709 19.3157 9.09993 19.3781 9.04679 19.4517C8.99366 19.5253 8.9556 19.6087 8.93481 19.6971C8.91402 19.7855 8.9109 19.8771 8.92564 19.9667C8.96065 20.1456 9.06513 20.3033 9.2162 20.4053C9.36727 20.5073 9.55261 20.5453 9.73162 20.5109C10.7188 20.34 11.7302 20.3683 12.7062 20.5943C13.6822 20.8203 14.6032 21.2393 15.4148 21.8266C15.5314 21.9097 15.6711 21.9543 15.8143 21.9543C15.9575 21.9543 16.0972 21.9097 16.2139 21.8266C17.0255 21.2393 17.9464 20.8203 18.9224 20.5943C19.8985 20.3683 20.9098 20.34 21.897 20.5109C22.076 20.5453 22.2613 20.5073 22.4124 20.4053C22.5635 20.3033 22.668 20.1456 22.703 19.9667C22.7177 19.8771 22.7146 19.7855 22.6938 19.6971C22.673 19.6087 22.635 19.5253 22.5818 19.4517C22.5287 19.3781 22.4615 19.3157 22.3842 19.2681C22.3069 19.2205 22.2209 19.1887 22.1312 19.1745V19.1745Z" fill="white"/>
</g>
<defs>
<clipPath id="clip0_2308_114">
<rect width="32" height="30" fill="white" transform="matrix(-1 0 0 1 32 0)"/>
</clipPath>
</defs>
</svg>
