<svg width="600" height="400" viewBox="0 0 600 400" fill="none" xmlns="http://www.w3.org/2000/svg">
<g clip-path="url(#clip0_0_3)">
<rect width="600" height="400" fill="white"/>
<path fill-rule="evenodd" clip-rule="evenodd" d="M118.088 30C92.6708 30 72 50.9454 72 76.5515V323.429C72 349.035 92.6708 369.98 118.088 369.98L480.927 370C506.344 370 526.956 349.055 526.956 323.449V298.55C527.015 298 527.015 297.469 526.956 296.918V76.5685C526.956 50.9625 506.344 30.0171 480.927 30.0171L118.088 30ZM118.088 45.7335H480.927C497.852 45.7335 511.266 59.3036 511.266 76.5711L511.247 281.046L399.282 189.142C396.282 186.664 391.928 186.763 389.045 189.378L326.619 245.667L229.661 144.66C228.209 143.165 226.209 142.3 224.13 142.261C222.051 142.221 220.031 143.028 218.54 144.503L87.6934 270.451V76.5743C87.6934 59.3263 101.167 45.7366 118.092 45.7366L118.088 45.7335ZM322.11 95.7267C303.754 95.7267 288.809 110.949 288.809 129.396C288.809 147.844 303.754 163.027 322.11 163.027C340.466 163.027 355.45 147.864 355.45 129.396C355.45 110.949 340.447 95.7267 322.11 95.7267ZM322.11 111.48C331.896 111.48 339.761 119.366 339.761 129.416C339.761 139.446 331.916 147.293 322.11 147.293C312.324 147.293 304.518 139.446 304.518 129.416C304.518 119.386 312.324 111.48 322.11 111.48ZM223.736 161.276L338.035 280.242C341.036 283.329 345.978 283.408 349.096 280.419C352.195 277.41 352.293 272.454 349.332 269.327L337.486 256.976L394.535 205.566L511.244 301.422V323.43C511.244 340.678 497.83 354.248 480.905 354.248H118.086C101.161 354.248 87.6873 340.678 87.6873 323.43V292.238L223.736 161.276Z" fill="white"/>
<rect x="34.5" y="32.5" width="531" height="330" rx="9.5" fill="#F0FCFF" stroke="#6B8FED"/>
<path d="M-34 406L222 158L450 406H-34Z" fill="#D3CCFF"/>
<path d="M158 478L446.793 230L704 478H158Z" fill="#8174D2"/>
<rect x="288" y="98" width="60" height="60" rx="30" fill="url(#paint0_linear_0_3)"/>
</g>
<defs>
<linearGradient id="paint0_linear_0_3" x1="343.862" y1="152.49" x2="174.226" y2="177.394" gradientUnits="userSpaceOnUse">
<stop stop-color="#FFBF1C"/>
<stop offset="0.993314" stop-color="#FBC53B" stop-opacity="0"/>
</linearGradient>
<clipPath id="clip0_0_3">
<rect width="600" height="400" fill="white"/>
</clipPath>
</defs>
</svg>
