<svg width="26" height="18" viewBox="0 0 26 18" fill="none" xmlns="http://www.w3.org/2000/svg">
<path d="M23 4H3.5L1.5 5L0.5 6.5V11.5L1.5 13L3 14H23L24.5 13L25.5 11.5V6.5L25 5.5L23 4Z" fill="#ECF3FF"/>
<path fill-rule="evenodd" clip-rule="evenodd" d="M3.49074 4.58333H22.5093C23.8388 4.58333 24.9167 5.66117 24.9167 6.99074V10.8426C24.9167 12.1722 23.8388 13.25 22.5093 13.25H3.49074C2.16117 13.25 1.08333 12.1722 1.08333 10.8426V6.99074C1.08333 5.66117 2.16117 4.58333 3.49074 4.58333ZM0 6.99074C0 5.06286 1.56286 3.5 3.49074 3.5H22.5093C24.4371 3.5 26 5.06286 26 6.99074V10.8426C26 12.7705 24.4371 14.3333 22.5093 14.3333H3.49074C1.56286 14.3333 0 12.7705 0 10.8426V6.99074ZM8.86073 7.54707V6.75H5.41667V7.54707H6.63607V11.0833H7.64133V7.54707H8.86073ZM12.3621 7.52328V6.75H9.57234V11.0833H12.3621V10.3101H10.5836V9.27803H11.9457V8.53449H10.5836V7.52328H12.3621ZM14.3008 8.8557L12.9595 6.75H13.9647C14.0302 6.75 14.0778 6.75892 14.1075 6.77677C14.1392 6.79263 14.167 6.82039 14.1908 6.86004L15.0533 8.32035C15.0632 8.29457 15.0741 8.26979 15.086 8.246C15.0999 8.2222 15.1147 8.19742 15.1306 8.17164L15.886 6.87491C15.9356 6.79164 16.003 6.75 16.0883 6.75H17.0519L15.6927 8.81108L17.0816 11.0833H16.0764C16.011 11.0833 15.9574 11.0675 15.9158 11.0357C15.8761 11.004 15.8444 10.9664 15.8206 10.9227L14.9522 9.40591C14.9363 9.44953 14.9185 9.48721 14.8986 9.51893L14.0897 10.9227C14.0659 10.9644 14.0341 11.002 13.9945 11.0357C13.9548 11.0675 13.9053 11.0833 13.8458 11.0833H12.9059L14.3008 8.8557ZM20.9118 7.54707V6.75H17.4678V7.54707H18.6872V11.0833H19.6924V7.54707H20.9118Z" fill="#1679F9"/>
</svg>
