<svg width="23" height="18" viewBox="0 0 23 18" fill="none" xmlns="http://www.w3.org/2000/svg">
<path d="M3.99999 4.5L7.46409 8.25H0.535889L3.99999 4.5Z" fill="#D93562"/>
<path d="M19 13.5L22.4641 9.75H15.5359L19 13.5Z" fill="#D93562"/>
<path d="M4.99999 1.5C4.99999 2.05228 4.55228 2.5 3.99999 2.5C3.44771 2.5 2.99999 2.05228 2.99999 1.5C2.99999 0.947715 3.44771 0.5 3.99999 0.5C4.55228 0.5 4.99999 0.947715 4.99999 1.5Z" fill="#D93562"/>
<path d="M4.99999 16.5C4.99999 17.0523 4.55228 17.5 3.99999 17.5C3.44771 17.5 2.99999 17.0523 2.99999 16.5C2.99999 15.9477 3.44771 15.5 3.99999 15.5C4.55228 15.5 4.99999 15.9477 4.99999 16.5Z" fill="#D93562"/>
<path d="M4.99999 11.5C4.99999 12.0523 4.55228 12.5 3.99999 12.5C3.44771 12.5 2.99999 12.0523 2.99999 11.5C2.99999 10.9477 3.44771 10.5 3.99999 10.5C4.55228 10.5 4.99999 10.9477 4.99999 11.5Z" fill="#D93562"/>
<path d="M9.99999 1.5C9.99999 2.05228 9.55228 2.5 8.99999 2.5C8.44771 2.5 7.99999 2.05228 7.99999 1.5C7.99999 0.947715 8.44771 0.5 8.99999 0.5C9.55228 0.5 9.99999 0.947715 9.99999 1.5Z" fill="#D93562"/>
<path d="M9.99999 16.5C9.99999 17.0523 9.55228 17.5 8.99999 17.5C8.44771 17.5 7.99999 17.0523 7.99999 16.5C7.99999 15.9477 8.44771 15.5 8.99999 15.5C9.55228 15.5 9.99999 15.9477 9.99999 16.5Z" fill="#D93562"/>
<path d="M15 1.5C15 2.05228 14.5523 2.5 14 2.5C13.4477 2.5 13 2.05228 13 1.5C13 0.947715 13.4477 0.5 14 0.5C14.5523 0.5 15 0.947715 15 1.5Z" fill="#D93562"/>
<path d="M15 16.5C15 17.0523 14.5523 17.5 14 17.5C13.4477 17.5 13 17.0523 13 16.5C13 15.9477 13.4477 15.5 14 15.5C14.5523 15.5 15 15.9477 15 16.5Z" fill="#D93562"/>
<path d="M20 1.5C20 2.05228 19.5523 2.5 19 2.5C18.4477 2.5 18 2.05228 18 1.5C18 0.947715 18.4477 0.5 19 0.5C19.5523 0.5 20 0.947715 20 1.5Z" fill="#D93562"/>
<path d="M20 6.5C20 7.05228 19.5523 7.5 19 7.5C18.4477 7.5 18 7.05228 18 6.5C18 5.94772 18.4477 5.5 19 5.5C19.5523 5.5 20 5.94772 20 6.5Z" fill="#D93562"/>
<path d="M20 16.5C20 17.0523 19.5523 17.5 19 17.5C18.4477 17.5 18 17.0523 18 16.5C18 15.9477 18.4477 15.5 19 15.5C19.5523 15.5 20 15.9477 20 16.5Z" fill="#D93562"/>
</svg>
