<svg width="36" height="36" viewBox="0 0 36 36" fill="none" xmlns="http://www.w3.org/2000/svg">
<circle cx="18" cy="18" r="18" fill="#50D25D"/>
<path fill-rule="evenodd" clip-rule="evenodd" d="M24.9181 13.7065C24.8798 13.674 24.8405 13.6427 24.8001 13.6127C24.7617 13.5841 24.7224 13.5567 24.6822 13.5306V21.0732C24.6822 22.8841 23.1936 24.3522 21.3572 24.3522H13.7092C13.7357 24.3919 13.7635 24.4307 13.7924 24.4685C13.8228 24.5084 13.8546 24.5471 13.8876 24.5848C14.3081 25.0656 14.9303 25.3699 15.6246 25.3699H23.421C24.6874 25.3699 25.7141 24.3574 25.7141 23.1085V15.4196C25.7141 14.7348 25.4055 14.1212 24.9181 13.7065ZM24.6865 12.1362C24.1763 10.8132 22.8785 9.87256 21.3572 9.87256H13.5608C11.5942 9.87256 10 11.4448 10 13.3843V21.0732C10 22.5734 10.9538 23.8533 12.2953 24.3565C12.8055 25.6795 14.1034 26.6201 15.6246 26.6201H23.421C25.3876 26.6201 26.9818 25.0479 26.9818 23.1085V15.4196C26.9818 13.9193 26.0281 12.6394 24.6865 12.1362ZM21.3572 11.3554H13.5608C12.4246 11.3554 11.5036 12.2638 11.5036 13.3843V21.0732C11.5036 22.1309 12.3128 23.0058 13.3537 23.103C13.3888 23.1063 13.4186 23.1053 13.4589 23.104C13.4864 23.1031 13.5187 23.102 13.5608 23.102H21.3572C22.4934 23.102 23.4145 22.1936 23.4145 21.0732V13.3843C23.4145 13.3187 23.4113 13.254 23.4052 13.1902C23.3063 12.1609 22.427 11.3554 21.3572 11.3554Z" fill="white"/>
</svg>
