<svg width="20" height="18" viewBox="0 0 20 18" fill="none" xmlns="http://www.w3.org/2000/svg">
<path d="M1 12.5879L5 8.58789L7.5 11.0879L12.5 6.08789L19 12.5879V15.5879H1V12.5879Z" fill="#ECF3FF"/>
<path d="M9 5.08789C9 5.91632 8.32843 6.58789 7.5 6.58789C6.67157 6.58789 6 5.91632 6 5.08789C6 4.25946 6.67157 3.58789 7.5 3.58789C8.32843 3.58789 9 4.25946 9 5.08789Z" fill="#ECF3FF"/>
<path fill-rule="evenodd" clip-rule="evenodd" d="M19.3328 16C19.7013 16 20 15.7014 20 15.3328V12.3917L18.7838 11.2626L13.1332 5.61177C12.9189 5.39723 12.571 5.39723 12.3569 5.61177L7.80405 10.1644L5.44736 7.80772C5.23304 7.59318 4.8852 7.59318 4.6711 7.80772L1.21622 11.2626L0 12.3917V15.3328C0 15.7014 0.298666 16 0.66723 16H19.3328ZM1.21622 12.8151V14.7838H10.8707L5.05912 8.97223L1.21622 12.8151ZM8.58032 10.9409L12.4232 14.7838H18.7838V12.8154L12.7449 6.7765L8.58032 10.9409Z" fill="#1679F9"/>
<path fill-rule="evenodd" clip-rule="evenodd" d="M10.1183 4.90208C10.1183 6.17823 9.08028 7.21627 7.80416 7.21627C6.52804 7.21627 5.49003 6.17823 5.49003 4.90208C5.49003 3.62593 6.52804 2.58789 7.80416 2.58789C9.08028 2.58789 10.1183 3.62593 10.1183 4.90208ZM8.78386 4.90208C8.78386 4.36196 8.34426 3.92235 7.80416 3.92235C7.26406 3.92235 6.82446 4.36196 6.82446 4.90208C6.82446 5.4422 7.26406 5.88181 7.80416 5.88181C8.34426 5.88181 8.78386 5.4422 8.78386 4.90208Z" fill="#1679F9"/>
</svg>
