<svg width="24" height="18" viewBox="0 0 24 18" fill="none" xmlns="http://www.w3.org/2000/svg">
<path d="M12 12.3178C12.6318 11.3675 13 10.2267 13 9C13 7.77326 12.6318 6.63251 12 5.68221C13.0749 4.06551 14.913 3 17 3C20.3137 3 23 5.68629 23 9C23 12.3137 20.3137 15 17 15C14.913 15 13.0749 13.9345 12 12.3178Z" fill="#ECF3FF"/>
<path d="M10.6511 7.17253C10.7642 7.0514 10.7576 6.86156 10.6365 6.74851L10.2163 6.3563C10.0952 6.24325 9.90532 6.2498 9.79227 6.37092L6.31761 10.0938L4.69817 8.33352C4.586 8.21158 4.39621 8.20368 4.27428 8.31586L3.85125 8.70504C3.72931 8.81722 3.72141 9.00701 3.83358 9.12894L6.31141 11.8222L10.6511 7.17253Z" fill="#1679F9"/>
<path d="M14.6956 11.1617L15.1109 11.577C15.2273 11.6934 15.4166 11.6914 15.5305 11.5727L17.2102 9.82182L19.031 11.5875C19.1462 11.6992 19.3297 11.6977 19.4431 11.5843L19.8584 11.169C19.9744 11.053 19.9729 10.8646 19.8552 10.7504L18.0234 8.97412L19.6777 7.24968C19.7883 7.13434 19.7864 6.95169 19.6734 6.83867L19.2581 6.4234C19.1417 6.30701 18.9525 6.30898 18.8385 6.42775L17.1801 8.15644L15.3818 6.41257C15.2666 6.30088 15.0831 6.30229 14.9696 6.41574L14.5543 6.83105C14.4384 6.947 14.4398 7.13544 14.5575 7.24959L16.3669 9.00414L14.6914 10.7507C14.5807 10.8661 14.5826 11.0487 14.6956 11.1617Z" fill="#1679F9"/>
<path fill-rule="evenodd" clip-rule="evenodd" d="M0 9C0 5.13401 3.13401 2 7 2C8.90548 2 10.6331 2.76135 11.8954 3.99645C13.1576 2.76138 14.8852 2 16.7906 2C20.6566 2 23.7906 5.13401 23.7906 9C23.7906 12.866 20.6566 16 16.7906 16C14.8851 16 13.1575 15.2387 11.8953 14.0036C10.6331 15.2387 8.90545 16 7 16C3.13401 16 0 12.866 0 9ZM1.15035 9C1.15035 5.76933 3.76933 3.15035 7 3.15035C10.2307 3.15035 12.8497 5.76933 12.8497 9C12.8497 12.2307 10.2307 14.8497 7 14.8497C3.76933 14.8497 1.15035 12.2307 1.15035 9ZM22.6403 9C22.6403 5.76933 20.0213 3.15035 16.7906 3.15035C15.1734 3.15035 13.7094 3.80664 12.6505 4.86742C13.499 6.02558 14 7.45428 14 9C14 10.5457 13.499 11.9744 12.6505 13.1326C13.7094 14.1934 15.1734 14.8497 16.7906 14.8497C20.0213 14.8497 22.6403 12.2307 22.6403 9Z" fill="#1679F9"/>
</svg>
