<svg width="19" height="14" viewBox="0 0 19 14" fill="none" xmlns="http://www.w3.org/2000/svg">
<path d="M3.11108 2.25C3.11108 1.42157 3.78266 0.75 4.61108 0.75H6.33331C7.16173 0.75 7.83331 1.42157 7.83331 2.25V4.25H3.11108V2.25Z" fill="#F6E3FF"/>
<path d="M10.6667 2.25C10.6667 1.42157 11.3383 0.75 12.1667 0.75H13.8889C14.7173 0.75 15.3889 1.42157 15.3889 2.25V4.25H10.6667V2.25Z" fill="#F6E3FF"/>
<path fill-rule="evenodd" clip-rule="evenodd" d="M2.36108 2.25C2.36108 1.00736 3.36844 0 4.61108 0H6.33331C7.57595 0 8.58331 1.00736 8.58331 2.25V3.5H9.91669V2.25C9.91669 1.00736 10.924 0 12.1667 0H13.8889C15.1316 0 16.1389 1.00736 16.1389 2.25V3.5H16.75C17.7165 3.5 18.5 4.2835 18.5 5.25V12.75C18.5 13.4404 17.9404 14 17.25 14H1.25C0.559645 14 0 13.4404 0 12.75V5.25C0 4.2835 0.783502 3.5 1.75 3.5H2.36108V2.25ZM1.75 5C1.61193 5 1.5 5.11193 1.5 5.25V12.5H17V5.25C17 5.11193 16.8881 5 16.75 5H1.75ZM14.6389 3.5V2.25C14.6389 1.83579 14.3031 1.5 13.8889 1.5H12.1667C11.7525 1.5 11.4167 1.83579 11.4167 2.25V3.5H14.6389ZM7.08331 2.25V3.5H3.86108V2.25C3.86108 1.83579 4.19687 1.5 4.61108 1.5H6.33331C6.74752 1.5 7.08331 1.83579 7.08331 2.25Z" fill="#A93FDB"/>
</svg>
