<svg width="24" height="24" viewBox="0 0 24 24" fill="none" xmlns="http://www.w3.org/2000/svg">
<path d="M1.30591 17.5202V7.12093L11.5356 11.6424V22.2678L1.30591 17.5202Z" fill="#222F3E" fill-opacity="0.2"/>
<path d="M8.37943 6.14872C9.46769 7.12083 12.181 7.07561 12.181 7.07561V5.08618L8.37943 4.521V6.14872Z" fill="#222F3E" fill-opacity="0.2"/>
<path fill-rule="evenodd" clip-rule="evenodd" d="M23.6439 5.7284C23.465 5.52512 23.2519 5.39441 23.0823 5.32855L16.9336 2.94146V4.38955L21.6133 6.20634L12.1247 10.5401L2.42077 6.2065L7.06668 4.44292V6.2558C7.06668 7.47396 9.27546 8.46148 12.0001 8.46148C14.7248 8.46148 16.9336 7.47396 16.9336 6.2558V4.38955V2.94146V2.82475V2.41002C16.9336 1.079 14.7248 0 12.0001 0C9.27546 0 7.06668 1.079 7.06668 2.41002V2.99875L0.922414 5.33109C0.752039 5.39577 0.537906 5.52524 0.357978 5.7281C0.168859 5.94132 0.000244141 6.25811 0.000244141 6.6678V17.6493C0.000244141 18.0936 0.250848 18.4967 0.640725 18.6795L11.8589 23.9399C12.0315 24.0209 12.2294 24.02 12.4013 23.9375L23.3679 18.6783C23.7533 18.4935 24 18.0929 24 17.652V6.6678C24 6.25852 23.8317 5.94175 23.6439 5.7284ZM22.6941 17.5074V7.19449L12.7806 11.7223V22.2616L22.6941 17.5074ZM11.4747 11.7263L1.30616 7.18522V17.5033L11.4747 22.2715V11.7263ZM15.6144 6.16364C15.6193 6.15845 15.6237 6.15365 15.6277 6.14925V4.5291C14.7262 4.98599 13.4347 5.27218 12.0001 5.27218C10.5656 5.27218 9.27404 4.98599 8.37259 4.5291V6.14925C8.37653 6.15365 8.38093 6.15845 8.38584 6.16364C8.47921 6.26233 8.67871 6.41339 9.02796 6.56953C9.72199 6.87982 10.7719 7.10505 12.0001 7.10505C13.2284 7.10505 14.2783 6.87982 14.9723 6.56953C15.3215 6.41339 15.521 6.26233 15.6144 6.16364ZM15.6277 2.86259C15.6564 2.7888 15.6713 2.71319 15.6713 2.6362C15.6713 2.56917 15.66 2.50319 15.6381 2.43854C15.395 1.72044 13.8459 1.16673 11.9712 1.16673C10.0104 1.16673 8.40581 1.77247 8.27918 2.53848C8.27384 2.57078 8.27113 2.60336 8.27113 2.6362C8.27113 3.01574 8.63344 3.36167 9.22819 3.62242C9.9052 3.91923 10.8834 4.10567 11.9712 4.10567C13.1203 4.10567 14.1471 3.89764 14.8257 3.57123C15.2027 3.38994 15.4722 3.17213 15.5957 2.93317C15.6115 2.91435 15.6215 2.89991 15.6277 2.89041V2.86259Z" fill="#222F3E"/>
</svg>
